<svg width="46" height="46" viewBox="0 0 46 46" fill="none" xmlns="http://www.w3.org/2000/svg">
  <style>
    @media (prefers-color-scheme: dark) {
      path {
        fill: #FFFFFF;
      }
    }
  </style>
  <path d="M26.7837 0.433456C26.0004 0.431692 25.2108 0.532356 24.4341 0.740427L10.7683 4.40213L12.0998 9.37161L25.7656 5.7099C27.0971 5.35322 28.5177 5.73374 29.4925 6.70835L39.4966 16.7126C40.4712 17.6874 40.8519 19.1081 40.4952 20.4396L37.0292 33.3744L44.3051 26.0987L45.4647 21.771C46.297 18.6641 45.4088 15.3494 43.1345 13.0748L33.1304 3.07059C31.4245 1.36491 29.1334 0.43875 26.7837 0.433456Z" fill="url(#paint0_linear_18_234)"/>
  <path d="M19.4843 45.7715C20.2675 45.7733 21.0571 45.6726 21.8339 45.4646L35.4997 41.8028L34.1681 36.8334L20.5023 40.4951C19.1708 40.8518 17.7502 40.4712 16.7755 39.4966L6.77138 29.4924C5.79674 28.5176 5.41609 27.0968 5.77276 25.7654L9.2387 12.8306L1.96285 20.1062L0.803291 24.434C-0.0290262 27.5409 0.859188 30.8556 3.13345 33.1301L13.1375 43.1344C14.8434 44.8401 17.1346 45.7662 19.4843 45.7715Z" fill="url(#paint1_linear_18_234)"/>
  <path d="M31.2728 35.3733C28.757 36.0474 27.264 38.6333 27.9382 41.1491C28.6123 43.6649 31.1982 45.1579 33.714 44.4838C36.2297 43.8097 37.7227 41.2237 37.0486 38.708C36.3745 36.1922 33.7886 34.6992 31.2728 35.3733Z" fill="#38ECBF"/>
  <path d="M14.9324 10.8316C17.4482 10.1575 18.9412 7.57158 18.2671 5.05579C17.593 2.54001 15.0071 1.04703 12.4913 1.72113C9.9755 2.39524 8.48252 4.98115 9.15662 7.49694C9.83072 10.0127 12.4166 11.5057 14.9324 10.8316Z" fill="#38ECBF"/>
  <defs>
    <linearGradient id="paint0_linear_18_234" x1="46.8169" y1="30.4228" x2="15.7822" y2="-0.611828" gradientUnits="userSpaceOnUse">
      <stop stop-color="#000C80" stop-opacity="0.7"/>
      <stop offset="0.866085" stop-color="#38ECBF"/>
    </linearGradient>
    <linearGradient id="paint1_linear_18_234" x1="-0.548953" y1="15.7821" x2="30.4857" y2="46.8168" gradientUnits="userSpaceOnUse">
      <stop stop-color="#000C80" stop-opacity="0.7"/>
      <stop offset="0.866085" stop-color="#38ECBF"/>
    </linearGradient>
  </defs>
</svg>
