<svg width="774" height="647" viewBox="0 0 774 647" fill="none" xmlns="http://www.w3.org/2000/svg">
  <path d="M545.085 308.585C577.185 277.485 612.585 249.885 649.585 228.585C703.385 197.685 774.785 178.985 837.885 196.985C894.985 213.285 932.085 267.585 940.185 318.285C950.085 380.185 919.085 443.485 862.985 480.885C736.085 565.485 580.685 460.385 451.485 440.785C390.485 431.585 331.385 418.285 268.785 415.085C191.485 411.185 103.885 432.985 92.5853 511.885C85.1853 563.485 121.985 616.685 175.985 636.885C229.885 657.085 296.385 644.685 339.085 609.085C384.585 571.085 400.885 515.285 426.285 466.385C454.185 412.285 495.785 356.285 545.085 308.585Z" stroke="url(#paint0_linear_2878_20647)" stroke-width="0.6379" stroke-miterlimit="10"/>
  <path d="M543.985 294.685C579.085 259.685 619.085 229.885 662.685 208.185C719.585 179.885 794.885 164.385 855.785 187.385C911.585 208.485 940.185 266.285 942.085 316.885C944.485 377.885 908.085 435.885 849.785 471.185C724.985 546.585 576.485 452.385 450.785 434.185C389.085 425.485 329.185 412.985 265.985 410.285C188.185 406.985 99.9854 427.985 85.2854 505.785C75.0854 559.685 114.685 614.985 172.285 634.885C227.185 653.885 293.885 640.685 336.885 605.085C384.585 565.685 399.685 508.185 425.085 457.585C453.285 401.485 494.685 343.985 543.985 294.685Z" stroke="url(#paint1_linear_2878_20647)" stroke-width="0.8008" stroke-miterlimit="10"/>
  <path d="M542.986 280.785C580.986 241.785 625.586 209.885 675.986 187.885C735.686 161.785 815.186 149.985 873.886 177.885C928.386 203.785 948.586 264.985 944.286 315.685C939.186 375.685 897.486 428.585 836.886 461.585C714.586 528.085 572.686 444.185 450.386 427.585C388.086 419.185 327.286 407.685 263.486 405.385C185.286 402.585 96.1856 422.985 78.2856 499.485C65.1856 555.685 107.586 613.085 168.786 632.685C224.586 650.485 291.586 636.585 334.986 600.985C384.986 560.285 398.786 500.985 424.186 448.585C452.286 390.785 493.486 331.585 542.986 280.785Z" stroke="url(#paint2_linear_2878_20647)" stroke-width="0.9637" stroke-miterlimit="10"/>
  <path d="M541.985 266.885C582.885 223.885 631.885 189.585 689.285 167.485C751.585 143.385 835.385 135.585 891.985 168.285C945.285 199.085 957.085 263.585 946.385 314.285C933.985 373.085 886.985 421.185 823.885 451.885C704.485 509.885 568.685 436.085 449.885 420.985C386.885 412.985 325.185 402.385 260.885 400.585C182.285 398.385 92.0854 418.085 71.2854 493.385C55.0854 551.985 100.485 611.585 165.385 630.685C221.985 647.385 289.385 632.585 333.085 597.085C385.385 554.985 397.985 493.985 423.285 439.885C451.385 379.985 492.285 319.085 541.985 266.885Z" stroke="url(#paint3_linear_2878_20647)" stroke-width="1.1266" stroke-miterlimit="10"/>
  <path d="M540.986 252.985C584.686 205.985 638.086 169.185 702.486 147.085C767.386 124.785 855.586 121.285 909.986 158.685C961.986 194.385 965.586 262.085 948.386 312.885C928.886 370.585 876.586 413.885 810.786 442.185C694.486 492.085 564.586 428.085 449.286 414.385C385.586 406.785 323.086 397.085 258.186 395.785C179.186 394.185 87.6856 413.185 64.0856 487.285C44.8856 548.185 93.2856 609.985 161.886 628.685C219.386 644.385 286.986 628.585 331.186 593.085C385.486 549.585 396.986 486.885 422.286 431.085C450.386 369.285 491.086 306.685 540.986 252.985Z" stroke="url(#paint4_linear_2878_20647)" stroke-width="1.2895" stroke-miterlimit="10"/>
  <path d="M539.986 239.085C586.486 188.085 644.286 148.585 715.786 126.685C783.186 105.985 875.786 107.085 928.086 149.185C978.786 189.985 974.386 260.685 950.586 311.685C924.086 368.285 866.486 406.985 797.886 432.585C684.986 474.785 560.786 420.185 448.886 407.885C384.486 400.785 321.086 391.885 255.786 390.985C176.386 389.885 83.3859 408.185 57.2859 481.085C34.5859 544.385 86.1859 608.485 158.586 626.685C216.886 641.385 284.786 624.585 329.486 589.185C386.086 544.285 396.286 479.885 421.586 422.285C449.486 358.485 489.686 294.085 539.986 239.085Z" stroke="url(#paint5_linear_2878_20647)" stroke-width="1.4524" stroke-miterlimit="10"/>
  <path d="M538.886 225.185C588.186 170.085 650.386 127.885 728.986 106.285C798.786 87.085 895.886 92.885 946.086 139.585C995.386 185.385 983.186 259.385 952.586 310.285C919.186 365.885 856.186 400.085 784.786 422.885C675.486 457.785 556.686 412.285 448.386 401.285C383.386 394.685 319.086 386.485 253.186 386.185C173.386 385.685 78.7858 403.185 50.1858 474.985C23.9858 540.385 78.8858 606.885 154.986 624.585C214.086 638.285 282.386 620.485 327.386 585.185C386.186 538.985 395.186 472.785 420.486 413.485C448.586 347.785 488.386 281.585 538.886 225.185Z" stroke="url(#paint6_linear_2878_20647)" stroke-width="1.6153" stroke-miterlimit="10"/>
  <path d="M537.885 211.285C589.985 152.185 656.485 107.085 742.285 85.8851C814.585 67.9851 915.985 78.6851 964.185 129.985C1012.08 180.885 992.085 258.085 954.685 308.885C914.485 363.485 846.185 393.485 771.785 413.185C666.185 441.185 552.685 404.385 447.885 394.585C382.185 388.485 316.985 381.085 250.585 381.185C170.285 381.285 73.9849 397.885 42.9849 468.685C13.3849 536.385 71.5849 605.485 151.485 622.485C211.385 635.285 280.085 616.585 325.485 581.085C386.585 533.685 394.285 465.585 419.585 404.585C447.585 337.085 487.085 269.085 537.885 211.285Z" stroke="url(#paint7_linear_2878_20647)" stroke-width="1.7782" stroke-miterlimit="10"/>
  <path d="M536.885 197.385C591.685 134.185 662.585 85.9851 755.485 65.4851C830.285 48.9851 935.985 64.5851 982.185 120.385C1028.58 176.485 1000.98 256.785 956.785 307.585C909.885 361.385 836.185 387.185 758.785 403.485C656.985 424.885 548.685 396.585 447.385 387.985C380.985 382.385 314.985 375.785 247.985 376.385C167.185 376.985 69.185 392.785 35.985 462.585C2.78498 532.385 64.385 604.085 147.985 620.485C208.685 632.385 277.785 612.585 323.485 577.185C386.885 528.385 393.285 458.585 418.585 395.785C446.685 326.285 485.685 256.485 536.885 197.385Z" stroke="url(#paint8_linear_2878_20647)" stroke-width="1.9411" stroke-miterlimit="10"/>
  <path d="M535.886 183.485C593.386 116.185 668.686 64.8851 768.786 45.0851C845.986 29.7851 955.986 50.4851 1000.29 110.785C1045.19 171.985 1010.09 255.685 958.886 306.185C905.186 359.185 826.186 381.285 745.786 393.785C647.686 409.085 544.686 388.685 446.886 381.385C379.786 376.385 312.986 370.485 245.386 371.585C164.286 372.785 64.3858 387.585 28.9858 456.385C-8.01421 528.385 57.2858 602.785 144.586 618.485C206.086 629.485 275.586 608.685 321.686 573.285C387.286 523.185 392.486 451.585 417.786 387.085C445.686 315.585 484.286 243.885 535.886 183.485Z" stroke="url(#paint9_linear_2878_20647)" stroke-width="2.104" stroke-miterlimit="10"/>
  <path d="M534.885 169.585C594.985 97.985 674.785 43.685 781.985 24.685C861.685 10.585 975.885 36.285 1018.29 101.285C1061.69 167.685 1018.99 254.685 960.885 304.885C900.485 357.185 815.985 375.785 732.685 384.085C638.285 393.485 540.585 380.885 446.285 374.785C378.485 370.385 310.785 365.185 242.685 366.685C161.185 368.485 59.385 382.185 21.785 450.185C-19.015 524.185 49.885 601.485 140.985 616.385C203.285 626.585 273.185 604.585 319.685 569.185C387.485 517.685 391.385 444.385 416.685 378.185C444.785 304.785 482.785 231.185 534.885 169.585Z" stroke="url(#paint10_linear_2878_20647)" stroke-width="2.2669" stroke-miterlimit="10"/>
  <path d="M533.785 155.685C596.685 80.085 680.885 22.3851 795.285 4.28505C877.485 -8.71495 995.785 22.1851 1036.39 91.6851C1078.19 163.185 1027.99 253.685 963.085 303.585C895.885 355.185 805.985 370.785 719.785 374.485C628.785 378.385 536.685 373.285 445.885 368.285C377.385 364.485 308.885 359.985 240.185 361.985C158.285 364.285 54.4854 376.985 14.8854 444.185C-29.8146 520.085 42.7854 600.385 137.685 614.485C200.785 623.885 270.985 600.685 317.885 565.385C387.985 512.585 390.585 437.485 415.885 369.485C443.885 294.085 481.485 218.685 533.785 155.685Z" stroke="url(#paint11_linear_2878_20647)" stroke-width="2.4298" stroke-miterlimit="10"/>
  <path d="M154.086 541.985C149.586 541.985 145.886 538.585 145.886 534.485C145.886 530.385 149.586 526.985 154.086 526.985C158.586 526.985 162.286 530.385 162.286 534.485C162.286 538.585 158.586 541.985 154.086 541.985Z" fill="url(#paint12_radial_2878_20647)"/>
  <path d="M154.086 540.485C157.786 540.485 160.786 537.799 160.786 534.485C160.786 531.171 157.786 528.485 154.086 528.485C150.385 528.485 147.386 531.171 147.386 534.485C147.386 537.799 150.385 540.485 154.086 540.485Z" fill="url(#paint13_linear_2878_20647)"/>
  <path d="M154.086 541.985C149.586 541.985 145.886 538.585 145.886 534.485C145.886 530.385 149.586 526.985 154.086 526.985C158.586 526.985 162.286 530.385 162.286 534.485C162.286 538.585 158.586 541.985 154.086 541.985Z" fill="url(#paint14_radial_2878_20647)"/>
  <path d="M154.086 540.485C157.786 540.485 160.786 537.799 160.786 534.485C160.786 531.171 157.786 528.485 154.086 528.485C150.385 528.485 147.386 531.171 147.386 534.485C147.386 537.799 150.385 540.485 154.086 540.485Z" fill="url(#paint15_linear_2878_20647)"/>
  <path d="M154.086 541.985C149.586 541.985 145.886 538.585 145.886 534.485C145.886 530.385 149.586 526.985 154.086 526.985C158.586 526.985 162.286 530.385 162.286 534.485C162.286 538.585 158.586 541.985 154.086 541.985Z" fill="url(#paint16_radial_2878_20647)"/>
  <path d="M154.086 540.485C157.786 540.485 160.786 537.799 160.786 534.485C160.786 531.171 157.786 528.485 154.086 528.485C150.385 528.485 147.386 531.171 147.386 534.485C147.386 537.799 150.385 540.485 154.086 540.485Z" fill="url(#paint17_linear_2878_20647)"/>
  <path d="M154.086 541.985C149.586 541.985 145.886 538.585 145.886 534.485C145.886 530.385 149.586 526.985 154.086 526.985C158.586 526.985 162.286 530.385 162.286 534.485C162.286 538.585 158.586 541.985 154.086 541.985Z" fill="url(#paint18_radial_2878_20647)"/>
  <path d="M154.086 540.485C157.786 540.485 160.786 537.799 160.786 534.485C160.786 531.171 157.786 528.485 154.086 528.485C150.385 528.485 147.386 531.171 147.386 534.485C147.386 537.799 150.385 540.485 154.086 540.485Z" fill="url(#paint19_linear_2878_20647)"/>
  <path d="M154.086 537.885C156.185 537.885 157.886 536.363 157.886 534.485C157.886 532.607 156.185 531.085 154.086 531.085C151.987 531.085 150.286 532.607 150.286 534.485C150.286 536.363 151.987 537.885 154.086 537.885Z" fill="white"/>
  <path d="M438.786 622.085C436.286 622.085 434.186 620.085 434.186 617.485C434.186 614.885 436.286 612.885 438.786 612.885C441.286 612.885 443.386 614.885 443.386 617.485C443.386 620.085 441.286 622.085 438.786 622.085Z" fill="url(#paint20_radial_2878_20647)"/>
  <path d="M438.786 620.585C440.498 620.585 441.886 619.197 441.886 617.485C441.886 615.773 440.498 614.385 438.786 614.385C437.073 614.385 435.686 615.773 435.686 617.485C435.686 619.197 437.073 620.585 438.786 620.585Z" fill="url(#paint21_linear_2878_20647)"/>
  <path d="M438.786 622.085C436.286 622.085 434.186 620.085 434.186 617.485C434.186 614.885 436.286 612.885 438.786 612.885C441.286 612.885 443.386 614.885 443.386 617.485C443.386 620.085 441.286 622.085 438.786 622.085Z" fill="url(#paint22_radial_2878_20647)"/>
  <path d="M438.786 620.585C440.498 620.585 441.886 619.197 441.886 617.485C441.886 615.773 440.498 614.385 438.786 614.385C437.073 614.385 435.686 615.773 435.686 617.485C435.686 619.197 437.073 620.585 438.786 620.585Z" fill="url(#paint23_linear_2878_20647)"/>
  <path d="M438.786 622.085C436.286 622.085 434.186 620.085 434.186 617.485C434.186 614.885 436.286 612.885 438.786 612.885C441.286 612.885 443.386 614.885 443.386 617.485C443.386 620.085 441.286 622.085 438.786 622.085Z" fill="url(#paint24_radial_2878_20647)"/>
  <path d="M438.786 620.585C440.498 620.585 441.886 619.197 441.886 617.485C441.886 615.773 440.498 614.385 438.786 614.385C437.073 614.385 435.686 615.773 435.686 617.485C435.686 619.197 437.073 620.585 438.786 620.585Z" fill="url(#paint25_linear_2878_20647)"/>
  <path d="M438.786 622.085C436.286 622.085 434.186 620.085 434.186 617.485C434.186 614.885 436.286 612.885 438.786 612.885C441.286 612.885 443.386 614.885 443.386 617.485C443.386 620.085 441.286 622.085 438.786 622.085Z" fill="url(#paint26_radial_2878_20647)"/>
  <path d="M438.786 620.585C440.498 620.585 441.886 619.197 441.886 617.485C441.886 615.773 440.498 614.385 438.786 614.385C437.073 614.385 435.686 615.773 435.686 617.485C435.686 619.197 437.073 620.585 438.786 620.585Z" fill="url(#paint27_linear_2878_20647)"/>
  <path d="M438.785 619.185C439.779 619.185 440.585 618.424 440.585 617.485C440.585 616.546 439.779 615.785 438.785 615.785C437.791 615.785 436.985 616.546 436.985 617.485C436.985 618.424 437.791 619.185 438.785 619.185Z" fill="white"/>
  <path d="M470.085 551.385C583.193 551.385 674.885 459.693 674.885 346.585C674.885 233.477 583.193 141.785 470.085 141.785C356.977 141.785 265.285 233.477 265.285 346.585C265.285 459.693 356.977 551.385 470.085 551.385Z" fill="url(#paint28_radial_2878_20647)"/>
  <path d="M630.486 26.1851C627.986 26.1851 625.886 24.1851 625.886 21.5851C625.886 19.0851 627.986 16.9851 630.486 16.9851C632.986 16.9851 635.086 18.9851 635.086 21.5851C635.086 24.1851 633.086 26.1851 630.486 26.1851Z" fill="url(#paint29_radial_2878_20647)"/>
  <path d="M630.486 24.6851C632.198 24.6851 633.586 23.2972 633.586 21.5851C633.586 19.873 632.198 18.4851 630.486 18.4851C628.774 18.4851 627.386 19.873 627.386 21.5851C627.386 23.2972 628.774 24.6851 630.486 24.6851Z" fill="url(#paint30_linear_2878_20647)"/>
  <path d="M630.486 26.1851C627.986 26.1851 625.886 24.1851 625.886 21.5851C625.886 19.0851 627.986 16.9851 630.486 16.9851C632.986 16.9851 635.086 18.9851 635.086 21.5851C635.086 24.1851 633.086 26.1851 630.486 26.1851Z" fill="url(#paint31_radial_2878_20647)"/>
  <path d="M630.486 24.6851C632.198 24.6851 633.586 23.2972 633.586 21.5851C633.586 19.873 632.198 18.4851 630.486 18.4851C628.774 18.4851 627.386 19.873 627.386 21.5851C627.386 23.2972 628.774 24.6851 630.486 24.6851Z" fill="url(#paint32_linear_2878_20647)"/>
  <path d="M630.486 26.1851C627.986 26.1851 625.886 24.1851 625.886 21.5851C625.886 19.0851 627.986 16.9851 630.486 16.9851C632.986 16.9851 635.086 18.9851 635.086 21.5851C635.086 24.1851 633.086 26.1851 630.486 26.1851Z" fill="url(#paint33_radial_2878_20647)"/>
  <path d="M630.486 24.6851C632.198 24.6851 633.586 23.2972 633.586 21.5851C633.586 19.873 632.198 18.4851 630.486 18.4851C628.774 18.4851 627.386 19.873 627.386 21.5851C627.386 23.2972 628.774 24.6851 630.486 24.6851Z" fill="url(#paint34_linear_2878_20647)"/>
  <path d="M630.486 26.1851C627.986 26.1851 625.886 24.1851 625.886 21.5851C625.886 19.0851 627.986 16.9851 630.486 16.9851C632.986 16.9851 635.086 18.9851 635.086 21.5851C635.086 24.1851 633.086 26.1851 630.486 26.1851Z" fill="url(#paint35_radial_2878_20647)"/>
  <path d="M630.486 24.6851C632.198 24.6851 633.586 23.2972 633.586 21.5851C633.586 19.873 632.198 18.4851 630.486 18.4851C628.774 18.4851 627.386 19.873 627.386 21.5851C627.386 23.2972 628.774 24.6851 630.486 24.6851Z" fill="url(#paint36_linear_2878_20647)"/>
  <path d="M630.486 23.285C631.48 23.285 632.286 22.5239 632.286 21.585C632.286 20.6461 631.48 19.885 630.486 19.885C629.491 19.885 628.686 20.6461 628.686 21.585C628.686 22.5239 629.491 23.285 630.486 23.285Z" fill="white"/>
  <path d="M469.985 523.985C567.684 523.985 646.885 444.784 646.885 347.085C646.885 249.386 567.684 170.185 469.985 170.185C372.286 170.185 293.085 249.386 293.085 347.085C293.085 444.784 372.286 523.985 469.985 523.985Z" fill="url(#paint37_linear_2878_20647)"/>
  <path d="M469.985 523.985C567.684 523.985 646.885 444.784 646.885 347.085C646.885 249.386 567.684 170.185 469.985 170.185C372.286 170.185 293.085 249.386 293.085 347.085C293.085 444.784 372.286 523.985 469.985 523.985Z" fill="url(#paint38_radial_2878_20647)"/>
  <path d="M837.786 196.985C894.886 213.285 931.986 267.585 940.086 318.285C949.986 380.185 918.986 443.485 862.886 480.885C735.986 565.485 580.586 460.385 451.386 440.785C390.386 431.585 331.286 418.285 268.686 415.085C191.386 411.185 103.786 432.985 92.4857 511.885C85.0857 563.485 121.886 616.685 175.886 636.885C229.786 657.085 296.286 644.685 338.986 609.085" stroke="url(#paint39_linear_2878_20647)" stroke-width="0.6379" stroke-miterlimit="10"/>
  <path d="M855.885 187.385C911.685 208.485 940.285 266.285 942.185 316.885C944.585 377.885 908.185 435.885 849.885 471.185C725.085 546.585 576.585 452.385 450.885 434.185C389.185 425.485 329.285 412.985 266.085 410.285C188.285 406.985 100.085 427.985 85.385 505.785C75.185 559.685 114.785 614.985 172.385 634.885C227.285 653.885 293.985 640.685 336.985 605.085" stroke="url(#paint40_linear_2878_20647)" stroke-width="0.8008" stroke-miterlimit="10"/>
  <path d="M873.886 177.885C928.386 203.785 948.586 264.985 944.286 315.685C939.186 375.685 897.486 428.585 836.886 461.585C714.586 528.085 572.686 444.185 450.386 427.585C388.086 419.185 327.286 407.685 263.486 405.385C185.286 402.585 96.1856 422.985 78.2856 499.485C65.1856 555.685 107.586 613.085 168.786 632.685C224.586 650.485 291.586 636.585 334.986 600.985" stroke="url(#paint41_linear_2878_20647)" stroke-width="0.9637" stroke-miterlimit="10"/>
  <path d="M891.985 168.285C945.285 199.085 957.085 263.585 946.385 314.285C933.985 373.085 886.985 421.185 823.885 451.885C704.485 509.885 568.685 436.085 449.885 420.985C386.885 412.985 325.185 402.385 260.885 400.585C182.285 398.385 92.0854 418.085 71.2854 493.385C55.0854 551.985 100.485 611.585 165.385 630.685C221.985 647.385 289.385 632.585 333.085 597.085" stroke="url(#paint42_linear_2878_20647)" stroke-width="1.1266" stroke-miterlimit="10"/>
  <path d="M909.986 158.685C961.986 194.385 965.586 262.085 948.386 312.885C928.886 370.585 876.586 413.885 810.786 442.185C694.486 492.085 564.586 428.085 449.286 414.385C385.586 406.785 323.086 397.085 258.186 395.785C179.186 394.185 87.6856 413.185 64.0856 487.285C44.8856 548.185 93.2856 609.985 161.886 628.685C219.386 644.385 286.986 628.585 331.186 593.085" stroke="url(#paint43_linear_2878_20647)" stroke-width="1.2895" stroke-miterlimit="10"/>
  <path d="M928.086 149.085C978.786 189.885 974.386 260.585 950.586 311.585C924.086 368.185 866.486 406.885 797.886 432.485C684.986 474.685 560.786 420.085 448.886 407.785C384.486 400.685 321.086 391.785 255.786 390.885C176.386 389.785 83.3859 408.085 57.2859 480.985C34.5859 544.285 86.1859 608.385 158.586 626.585C216.886 641.285 284.786 624.485 329.486 589.085" stroke="url(#paint44_linear_2878_20647)" stroke-width="1.4524" stroke-miterlimit="10"/>
  <path d="M946.086 139.585C995.386 185.385 983.186 259.385 952.586 310.285C919.186 365.885 856.186 400.085 784.786 422.885C675.486 457.785 556.686 412.285 448.386 401.285C383.386 394.685 319.086 386.485 253.186 386.185C173.386 385.685 78.7858 403.185 50.1858 474.985C23.9858 540.385 78.8858 606.885 154.986 624.585C214.086 638.285 282.386 620.485 327.386 585.185" stroke="url(#paint45_linear_2878_20647)" stroke-width="1.6153" stroke-miterlimit="10"/>
  <path d="M964.185 129.985C1012.08 180.885 992.085 258.085 954.685 308.885C914.485 363.485 846.185 393.485 771.785 413.185C666.185 441.185 552.685 404.385 447.885 394.585C382.185 388.485 316.985 381.085 250.585 381.185C170.285 381.285 73.9849 397.885 42.9849 468.685C13.3849 536.385 71.5849 605.485 151.485 622.485C211.385 635.285 280.085 616.585 325.485 581.085" stroke="url(#paint46_linear_2878_20647)" stroke-width="1.7782" stroke-miterlimit="10"/>
  <path d="M982.185 120.385C1028.58 176.485 1000.98 256.785 956.785 307.585C909.885 361.385 836.185 387.185 758.785 403.485C656.985 424.885 548.685 396.585 447.385 387.985C380.985 382.385 314.985 375.785 247.985 376.385C167.185 376.985 69.185 392.785 35.985 462.585C2.78498 532.385 64.385 604.085 147.985 620.485C208.685 632.385 277.785 612.585 323.485 577.185" stroke="url(#paint47_linear_2878_20647)" stroke-width="1.9411" stroke-miterlimit="10"/>
  <path d="M768.786 45.0851C845.986 29.7851 955.986 50.4851 1000.29 110.785C1045.19 171.985 1010.09 255.685 958.886 306.185C905.186 359.185 826.186 381.285 745.786 393.785C647.686 409.085 544.686 388.685 446.886 381.385C379.786 376.385 312.986 370.485 245.386 371.585C164.286 372.785 64.3858 387.585 28.9858 456.385C-8.01421 528.385 57.2858 602.785 144.586 618.485C206.086 629.485 275.586 608.685 321.686 573.285" stroke="url(#paint48_linear_2878_20647)" stroke-width="2.104" stroke-miterlimit="10"/>
  <path d="M781.985 24.685C861.685 10.585 975.885 36.285 1018.29 101.285C1061.69 167.685 1018.99 254.685 960.885 304.885C900.485 357.185 815.985 375.785 732.685 384.085C638.285 393.485 540.585 380.885 446.285 374.785C378.485 370.385 310.785 365.185 242.685 366.685C161.185 368.485 59.385 382.185 21.785 450.185C-19.015 524.185 49.885 601.485 140.985 616.385C203.285 626.585 273.185 604.585 319.685 569.185" stroke="url(#paint49_linear_2878_20647)" stroke-width="2.2669" stroke-miterlimit="10"/>
  <path d="M795.285 4.28505C877.485 -8.71495 995.785 22.1851 1036.39 91.6851C1078.19 163.185 1027.99 253.685 963.085 303.585C895.885 355.185 805.985 370.785 719.785 374.485C628.785 378.385 536.685 373.285 445.885 368.285C377.385 364.485 308.885 359.985 240.185 361.985C158.285 364.285 54.4854 376.985 14.8854 444.185C-29.8146 520.085 42.7854 600.385 137.685 614.485C200.785 623.885 270.985 600.685 317.885 565.385" stroke="url(#paint50_linear_2878_20647)" stroke-width="2.4298" stroke-miterlimit="10"/>
  <defs>
    <linearGradient id="paint0_linear_2878_20647" x1="91.1926" y1="418.253" x2="942.262" y2="418.253" gradientUnits="userSpaceOnUse">
      <stop stop-color="#098D86"/>
      <stop offset="1" stop-color="#2671C1"/>
    </linearGradient>
    <linearGradient id="paint1_linear_2878_20647" x1="83.3893" y1="409.9" x2="942.698" y2="409.9" gradientUnits="userSpaceOnUse">
      <stop stop-color="#0C8A8B"/>
      <stop offset="1" stop-color="#2374BC"/>
    </linearGradient>
    <linearGradient id="paint2_linear_2878_20647" x1="75.4585" y1="401.159" x2="945.314" y2="401.159" gradientUnits="userSpaceOnUse">
      <stop stop-color="#0E8891"/>
      <stop offset="1" stop-color="#2176B6"/>
    </linearGradient>
    <linearGradient id="paint3_linear_2878_20647" x1="67.4144" y1="392.038" x2="950.498" y2="392.038" gradientUnits="userSpaceOnUse">
      <stop stop-color="#118596"/>
      <stop offset="1" stop-color="#1E79B1"/>
    </linearGradient>
    <linearGradient id="paint4_linear_2878_20647" x1="59.2693" y1="382.543" x2="958.312" y2="382.543" gradientUnits="userSpaceOnUse">
      <stop stop-color="#14839B"/>
      <stop offset="1" stop-color="#1B7BAC"/>
    </linearGradient>
    <linearGradient id="paint5_linear_2878_20647" x1="51.0318" y1="372.714" x2="968.37" y2="372.714" gradientUnits="userSpaceOnUse">
      <stop stop-color="#1680A1"/>
      <stop offset="1" stop-color="#197EA6"/>
    </linearGradient>
    <linearGradient id="paint6_linear_2878_20647" x1="42.7093" y1="362.581" x2="980.155" y2="362.581" gradientUnits="userSpaceOnUse">
      <stop stop-color="#197EA6"/>
      <stop offset="1" stop-color="#1680A1"/>
    </linearGradient>
    <linearGradient id="paint7_linear_2878_20647" x1="34.3081" y1="352.192" x2="993.214" y2="352.192" gradientUnits="userSpaceOnUse">
      <stop stop-color="#1B7BAC"/>
      <stop offset="1" stop-color="#14839B"/>
    </linearGradient>
    <linearGradient id="paint8_linear_2878_20647" x1="25.8365" y1="341.586" x2="1007.21" y2="341.586" gradientUnits="userSpaceOnUse">
      <stop stop-color="#1E79B1"/>
      <stop offset="1" stop-color="#118596"/>
    </linearGradient>
    <linearGradient id="paint9_linear_2878_20647" x1="17.3001" y1="330.813" x2="1021.92" y2="330.813" gradientUnits="userSpaceOnUse">
      <stop stop-color="#2176B6"/>
      <stop offset="1" stop-color="#0E8891"/>
    </linearGradient>
    <linearGradient id="paint10_linear_2878_20647" x1="8.70221" y1="319.912" x2="1037.17" y2="319.912" gradientUnits="userSpaceOnUse">
      <stop stop-color="#2374BC"/>
      <stop offset="1" stop-color="#0C8A8B"/>
    </linearGradient>
    <linearGradient id="paint11_linear_2878_20647" x1="0.050901" y1="308.917" x2="1052.86" y2="308.917" gradientUnits="userSpaceOnUse">
      <stop stop-color="#2671C1"/>
      <stop offset="1" stop-color="#098D86"/>
    </linearGradient>
    <radialGradient id="paint12_radial_2878_20647" cx="0" cy="0" r="1" gradientUnits="userSpaceOnUse" gradientTransform="translate(154.077 534.457) scale(7.869 7.869)">
      <stop stop-color="#296D85"/>
      <stop offset="0.114" stop-color="#237385" stop-opacity="0.8771"/>
      <stop offset="0.609" stop-color="#0E8986" stop-opacity="0.3437"/>
      <stop offset="0.9279" stop-color="#069186" stop-opacity="0"/>
    </radialGradient>
    <linearGradient id="paint13_linear_2878_20647" x1="147.35" y1="534.457" x2="160.803" y2="534.457" gradientUnits="userSpaceOnUse">
      <stop stop-color="#296D85"/>
      <stop offset="1" stop-color="#069186"/>
    </linearGradient>
    <radialGradient id="paint14_radial_2878_20647" cx="0" cy="0" r="1" gradientUnits="userSpaceOnUse" gradientTransform="translate(154.077 534.457) scale(7.869 7.869)">
      <stop stop-color="#296D85"/>
      <stop offset="0.114" stop-color="#237385" stop-opacity="0.8771"/>
      <stop offset="0.609" stop-color="#0E8986" stop-opacity="0.3437"/>
      <stop offset="0.9279" stop-color="#069186" stop-opacity="0"/>
    </radialGradient>
    <linearGradient id="paint15_linear_2878_20647" x1="147.35" y1="534.457" x2="160.803" y2="534.457" gradientUnits="userSpaceOnUse">
      <stop stop-color="#296D85"/>
      <stop offset="1" stop-color="#069186"/>
    </linearGradient>
    <radialGradient id="paint16_radial_2878_20647" cx="0" cy="0" r="1" gradientUnits="userSpaceOnUse" gradientTransform="translate(154.077 534.457) scale(7.869 7.869)">
      <stop stop-color="#296D85"/>
      <stop offset="0.114" stop-color="#237385" stop-opacity="0.8771"/>
      <stop offset="0.609" stop-color="#0E8986" stop-opacity="0.3437"/>
      <stop offset="0.9279" stop-color="#069186" stop-opacity="0"/>
    </radialGradient>
    <linearGradient id="paint17_linear_2878_20647" x1="147.35" y1="534.457" x2="160.803" y2="534.457" gradientUnits="userSpaceOnUse">
      <stop stop-color="#296D85"/>
      <stop offset="1" stop-color="#069186"/>
    </linearGradient>
    <radialGradient id="paint18_radial_2878_20647" cx="0" cy="0" r="1" gradientUnits="userSpaceOnUse" gradientTransform="translate(154.077 534.457) scale(7.869 7.869)">
      <stop stop-color="#296D85"/>
      <stop offset="0.114" stop-color="#237385" stop-opacity="0.8771"/>
      <stop offset="0.609" stop-color="#0E8986" stop-opacity="0.3437"/>
      <stop offset="0.9279" stop-color="#069186" stop-opacity="0"/>
    </radialGradient>
    <linearGradient id="paint19_linear_2878_20647" x1="147.35" y1="534.457" x2="160.803" y2="534.457" gradientUnits="userSpaceOnUse">
      <stop stop-color="#296D85"/>
      <stop offset="1" stop-color="#069186"/>
    </linearGradient>
    <radialGradient id="paint20_radial_2878_20647" cx="0" cy="0" r="1" gradientUnits="userSpaceOnUse" gradientTransform="translate(438.786 617.506) scale(4.57809 4.57808)">
      <stop stop-color="#296D85"/>
      <stop offset="0.114" stop-color="#237385" stop-opacity="0.8771"/>
      <stop offset="0.609" stop-color="#0E8986" stop-opacity="0.3437"/>
      <stop offset="0.9279" stop-color="#069186" stop-opacity="0"/>
    </radialGradient>
    <linearGradient id="paint21_linear_2878_20647" x1="435.687" y1="617.506" x2="441.886" y2="617.506" gradientUnits="userSpaceOnUse">
      <stop stop-color="#296D85"/>
      <stop offset="1" stop-color="#069186"/>
    </linearGradient>
    <radialGradient id="paint22_radial_2878_20647" cx="0" cy="0" r="1" gradientUnits="userSpaceOnUse" gradientTransform="translate(438.786 617.506) scale(4.57809 4.57808)">
      <stop stop-color="#296D85"/>
      <stop offset="0.114" stop-color="#237385" stop-opacity="0.8771"/>
      <stop offset="0.609" stop-color="#0E8986" stop-opacity="0.3437"/>
      <stop offset="0.9279" stop-color="#069186" stop-opacity="0"/>
    </radialGradient>
    <linearGradient id="paint23_linear_2878_20647" x1="435.687" y1="617.506" x2="441.886" y2="617.506" gradientUnits="userSpaceOnUse">
      <stop stop-color="#296D85"/>
      <stop offset="1" stop-color="#069186"/>
    </linearGradient>
    <radialGradient id="paint24_radial_2878_20647" cx="0" cy="0" r="1" gradientUnits="userSpaceOnUse" gradientTransform="translate(438.786 617.506) scale(4.57809 4.57808)">
      <stop stop-color="#296D85"/>
      <stop offset="0.114" stop-color="#237385" stop-opacity="0.8771"/>
      <stop offset="0.609" stop-color="#0E8986" stop-opacity="0.3437"/>
      <stop offset="0.9279" stop-color="#069186" stop-opacity="0"/>
    </radialGradient>
    <linearGradient id="paint25_linear_2878_20647" x1="435.687" y1="617.506" x2="441.886" y2="617.506" gradientUnits="userSpaceOnUse">
      <stop stop-color="#296D85"/>
      <stop offset="1" stop-color="#069186"/>
    </linearGradient>
    <radialGradient id="paint26_radial_2878_20647" cx="0" cy="0" r="1" gradientUnits="userSpaceOnUse" gradientTransform="translate(438.786 617.506) scale(4.57809 4.57808)">
      <stop stop-color="#296D85"/>
      <stop offset="0.114" stop-color="#237385" stop-opacity="0.8771"/>
      <stop offset="0.609" stop-color="#0E8986" stop-opacity="0.3437"/>
      <stop offset="0.9279" stop-color="#069186" stop-opacity="0"/>
    </radialGradient>
    <linearGradient id="paint27_linear_2878_20647" x1="435.687" y1="617.506" x2="441.886" y2="617.506" gradientUnits="userSpaceOnUse">
      <stop stop-color="#296D85"/>
      <stop offset="1" stop-color="#069186"/>
    </linearGradient>
    <radialGradient id="paint28_radial_2878_20647" cx="0" cy="0" r="1" gradientUnits="userSpaceOnUse" gradientTransform="translate(470.092 346.583) scale(204.81)">
      <stop offset="0.7586" stop-color="#1F75B6"/>
      <stop offset="0.9841" stop-color="#1F75B6" stop-opacity="0"/>
    </radialGradient>
    <radialGradient id="paint29_radial_2878_20647" cx="0" cy="0" r="1" gradientUnits="userSpaceOnUse" gradientTransform="translate(630.511 21.6266) scale(4.57818 4.5782)">
      <stop stop-color="#296D85"/>
      <stop offset="0.114" stop-color="#237385" stop-opacity="0.8771"/>
      <stop offset="0.609" stop-color="#0E8986" stop-opacity="0.3437"/>
      <stop offset="0.9279" stop-color="#069186" stop-opacity="0"/>
    </radialGradient>
    <linearGradient id="paint30_linear_2878_20647" x1="627.412" y1="21.6265" x2="633.611" y2="21.6265" gradientUnits="userSpaceOnUse">
      <stop stop-color="#296D85"/>
      <stop offset="1" stop-color="#069186"/>
    </linearGradient>
    <radialGradient id="paint31_radial_2878_20647" cx="0" cy="0" r="1" gradientUnits="userSpaceOnUse" gradientTransform="translate(630.511 21.6266) scale(4.57818 4.5782)">
      <stop stop-color="#296D85"/>
      <stop offset="0.114" stop-color="#237385" stop-opacity="0.8771"/>
      <stop offset="0.609" stop-color="#0E8986" stop-opacity="0.3437"/>
      <stop offset="0.9279" stop-color="#069186" stop-opacity="0"/>
    </radialGradient>
    <linearGradient id="paint32_linear_2878_20647" x1="627.412" y1="21.6265" x2="633.611" y2="21.6265" gradientUnits="userSpaceOnUse">
      <stop stop-color="#296D85"/>
      <stop offset="1" stop-color="#069186"/>
    </linearGradient>
    <radialGradient id="paint33_radial_2878_20647" cx="0" cy="0" r="1" gradientUnits="userSpaceOnUse" gradientTransform="translate(630.511 21.6266) scale(4.57818 4.5782)">
      <stop stop-color="#296D85"/>
      <stop offset="0.114" stop-color="#237385" stop-opacity="0.8771"/>
      <stop offset="0.609" stop-color="#0E8986" stop-opacity="0.3437"/>
      <stop offset="0.9279" stop-color="#069186" stop-opacity="0"/>
    </radialGradient>
    <linearGradient id="paint34_linear_2878_20647" x1="627.412" y1="21.6265" x2="633.611" y2="21.6265" gradientUnits="userSpaceOnUse">
      <stop stop-color="#296D85"/>
      <stop offset="1" stop-color="#069186"/>
    </linearGradient>
    <radialGradient id="paint35_radial_2878_20647" cx="0" cy="0" r="1" gradientUnits="userSpaceOnUse" gradientTransform="translate(630.511 21.6266) scale(4.57818 4.5782)">
      <stop stop-color="#296D85"/>
      <stop offset="0.114" stop-color="#237385" stop-opacity="0.8771"/>
      <stop offset="0.609" stop-color="#0E8986" stop-opacity="0.3437"/>
      <stop offset="0.9279" stop-color="#069186" stop-opacity="0"/>
    </radialGradient>
    <linearGradient id="paint36_linear_2878_20647" x1="627.412" y1="21.6265" x2="633.611" y2="21.6265" gradientUnits="userSpaceOnUse">
      <stop stop-color="#296D85"/>
      <stop offset="1" stop-color="#069186"/>
    </linearGradient>
    <linearGradient id="paint37_linear_2878_20647" x1="293.11" y1="347.037" x2="646.93" y2="347.037" gradientUnits="userSpaceOnUse">
      <stop stop-color="#F56A75"/>
      <stop offset="1" stop-color="#F56A75"/>
    </linearGradient>
    <radialGradient id="paint38_radial_2878_20647" cx="0" cy="0" r="1" gradientUnits="userSpaceOnUse" gradientTransform="translate(313.804 166.094) scale(582.77 582.77)">
      <stop offset="0.136" stop-color="#2671C1"/>
      <stop offset="0.1987" stop-color="#256DBA"/>
      <stop offset="0.2912" stop-color="#2261A6"/>
      <stop offset="0.4022" stop-color="#1C4D85"/>
      <stop offset="0.5264" stop-color="#153158"/>
      <stop offset="0.6236" stop-color="#0E1930"/>
    </radialGradient>
    <linearGradient id="paint39_linear_2878_20647" x1="91.193" y1="421.78" x2="942.262" y2="421.78" gradientUnits="userSpaceOnUse">
      <stop stop-color="#098D86"/>
      <stop offset="1" stop-color="#2671C1"/>
    </linearGradient>
    <linearGradient id="paint40_linear_2878_20647" x1="83.3889" y1="415.468" x2="942.698" y2="415.468" gradientUnits="userSpaceOnUse">
      <stop stop-color="#0C8A8B"/>
      <stop offset="1" stop-color="#2374BC"/>
    </linearGradient>
    <linearGradient id="paint41_linear_2878_20647" x1="75.4585" y1="409.196" x2="945.314" y2="409.196" gradientUnits="userSpaceOnUse">
      <stop stop-color="#0E8791"/>
      <stop offset="1" stop-color="#2177B6"/>
    </linearGradient>
    <linearGradient id="paint42_linear_2878_20647" x1="67.4144" y1="402.963" x2="950.498" y2="402.963" gradientUnits="userSpaceOnUse">
      <stop stop-color="#118596"/>
      <stop offset="1" stop-color="#1E79B1"/>
    </linearGradient>
    <linearGradient id="paint43_linear_2878_20647" x1="59.2693" y1="396.762" x2="958.312" y2="396.762" gradientUnits="userSpaceOnUse">
      <stop stop-color="#14829B"/>
      <stop offset="1" stop-color="#1B7CAC"/>
    </linearGradient>
    <linearGradient id="paint44_linear_2878_20647" x1="51.0318" y1="390.604" x2="968.37" y2="390.604" gradientUnits="userSpaceOnUse">
      <stop stop-color="#1680A1"/>
      <stop offset="1" stop-color="#197FA6"/>
    </linearGradient>
    <linearGradient id="paint45_linear_2878_20647" x1="42.7093" y1="384.482" x2="980.155" y2="384.482" gradientUnits="userSpaceOnUse">
      <stop stop-color="#197FA6"/>
      <stop offset="1" stop-color="#1680A1"/>
    </linearGradient>
    <linearGradient id="paint46_linear_2878_20647" x1="34.3081" y1="378.399" x2="993.214" y2="378.399" gradientUnits="userSpaceOnUse">
      <stop stop-color="#1B7CAC"/>
      <stop offset="1" stop-color="#14829B"/>
    </linearGradient>
    <linearGradient id="paint47_linear_2878_20647" x1="25.8365" y1="372.343" x2="1007.21" y2="372.343" gradientUnits="userSpaceOnUse">
      <stop stop-color="#1E79B1"/>
      <stop offset="1" stop-color="#118596"/>
    </linearGradient>
    <linearGradient id="paint48_linear_2878_20647" x1="17.3001" y1="330.813" x2="1021.92" y2="330.813" gradientUnits="userSpaceOnUse">
      <stop stop-color="#2177B6"/>
      <stop offset="1" stop-color="#0E8791"/>
    </linearGradient>
    <linearGradient id="paint49_linear_2878_20647" x1="8.70221" y1="319.912" x2="1037.17" y2="319.912" gradientUnits="userSpaceOnUse">
      <stop stop-color="#2374BC"/>
      <stop offset="1" stop-color="#0C8A8B"/>
    </linearGradient>
    <linearGradient id="paint50_linear_2878_20647" x1="0.050901" y1="308.917" x2="1052.86" y2="308.917" gradientUnits="userSpaceOnUse">
      <stop stop-color="#2671C1"/>
      <stop offset="1" stop-color="#098D86"/>
    </linearGradient>
  </defs>
</svg>
