<svg width="947" height="313" viewBox="0 0 947 313" fill="none" xmlns="http://www.w3.org/2000/svg">
  <path d="M731.056 176.124C708.216 181.589 684.641 186.484 665.717 200.188C648.668 212.587 634.23 223.844 613.837 230.043C590.345 237.221 566.199 237.792 542.054 232.816C521.009 228.493 471.821 215.278 470.026 187.299C467.742 151 591.568 118.942 621.831 111.111C654.46 102.71 688.394 95.6944 722.164 94.3077C743.047 93.4104 763.848 91.4527 784.811 92.6762C805.123 93.8998 828.86 102.139 817.685 127.018C813.28 136.807 805.286 144.719 796.313 150.674C784.24 158.749 770.21 164.378 756.506 169.027C748.349 171.801 739.784 174.003 731.056 176.124Z" stroke="url(#paint0_linear_2878_20287)" stroke-width="2.82279" stroke-miterlimit="10"/>
  <path d="M617.915 108.338C654.622 98.2229 692.961 90.3105 731.055 87.9449C754.629 86.4766 778.204 84.2742 801.859 85.4162C826.576 86.5582 855.207 95.2048 849.66 122.858C848.029 131.178 844.603 139.172 839.138 146.677C837.098 149.45 834.814 152.06 832.286 154.426C820.458 165.683 804.796 173.758 788.889 180.121C779.346 183.955 769.231 186.891 759.034 189.175C757.648 189.502 756.261 189.828 754.793 190.073C728.445 195.62 706.992 194.478 685.049 206.387C683.825 207.04 682.602 207.774 681.378 208.508C660.333 221.559 644.752 237.303 623.299 247.173C596.054 259.816 563.507 263.161 530.389 259.245C495.231 255.085 433.726 238.282 430.953 206.387C427.445 164.704 566.362 122.45 617.915 108.338Z" stroke="url(#paint1_linear_2878_20287)" stroke-width="2.63852" stroke-miterlimit="10"/>
  <path d="M613.919 105.483C654.786 93.8997 697.448 84.7636 739.947 81.4192C766.213 79.3799 792.561 77.0143 818.908 77.9932C847.948 79.1352 881.8 88.5159 881.637 118.616C881.555 128.16 879.761 137.948 874.785 147.982C872.99 151.571 870.788 154.997 868.178 158.178C856.594 172.453 839.301 183.139 821.274 191.296C810.425 196.191 798.76 199.78 787.177 202.39C785.545 202.716 783.914 203.124 782.283 203.369C750.143 209.568 728.201 202.553 701.527 214.87C700.058 215.523 698.59 216.339 697.203 217.073C672.161 230.777 655.439 251.251 632.843 264.548C601.846 282.901 560.897 289.101 518.724 285.838C469.455 282.004 395.633 261.366 391.88 225.556C386.986 178.408 541.157 126.039 613.919 105.483Z" stroke="url(#paint2_linear_2878_20287)" stroke-width="2.45425" stroke-miterlimit="10"/>
  <path d="M609.921 102.628C654.949 89.5764 701.852 79.2168 748.838 74.975C777.877 72.3647 806.917 69.7545 835.956 70.6517C869.4 71.7122 908.718 81.9086 913.612 114.374C915.244 125.223 914.917 136.725 910.431 149.287C908.8 153.692 906.679 157.933 904.068 161.93C892.648 179.224 873.805 192.601 853.576 202.39C841.421 208.345 828.288 212.668 815.155 215.523C813.361 215.931 811.485 216.257 809.69 216.583C771.678 223.354 749.245 210.547 718.003 223.191C716.29 223.925 714.659 224.659 713.028 225.475C683.988 239.913 666.205 265.2 642.468 281.759C607.8 305.986 558.286 315.041 507.222 312.349C443.759 309.004 357.701 284.37 352.97 244.644C346.608 192.112 516.032 129.791 609.921 102.628Z" stroke="url(#paint3_linear_2878_20287)" stroke-width="2.27006" stroke-miterlimit="10"/>
  <path d="M605.843 99.7728C655.031 85.3346 706.339 73.6699 757.648 68.4493C789.379 65.1864 821.192 62.413 852.924 63.2287C890.692 64.2075 935.801 75.2197 945.508 110.051C948.852 122.205 949.994 135.42 945.997 150.51C944.61 155.731 942.571 160.788 939.961 165.52C928.622 185.749 908.229 201.819 885.879 213.402C872.419 220.417 857.818 225.475 843.217 228.575C841.177 228.982 839.138 229.39 837.099 229.717C793.295 237.14 770.292 218.46 734.4 231.511C732.442 232.245 730.566 232.979 728.69 233.877C695.654 248.967 676.892 279.231 651.85 298.971C613.592 329.316 555.513 341.062 495.477 338.941C417.82 336.168 319.527 307.536 313.816 263.813C306.23 205.816 490.827 133.543 605.843 99.7728Z" stroke="url(#paint4_linear_2878_20287)" stroke-width="2.08579" stroke-miterlimit="10"/>
  <path d="M601.846 96.9178C655.194 81.0929 710.744 68.2046 766.539 62.0051C800.963 58.1713 835.468 55.2347 869.972 55.8873C912.145 56.7846 963.046 68.6124 977.484 105.891C982.704 119.268 985.07 134.278 981.644 151.897C980.42 157.933 978.544 163.807 975.852 169.353C964.596 192.52 942.734 211.281 918.263 224.578C903.498 232.653 887.347 238.445 871.278 241.789C868.994 242.279 866.71 242.686 864.507 243.013C814.83 251.007 791.337 226.617 750.878 239.995C748.675 240.729 746.554 241.544 744.515 242.442C707.482 258.185 687.741 293.506 661.475 316.346C619.71 352.645 552.903 367.083 483.894 365.452C392.044 363.331 281.514 330.539 274.825 282.983C265.771 219.52 465.703 137.296 601.846 96.9178Z" stroke="url(#paint5_linear_2878_20287)" stroke-width="1.90152" stroke-miterlimit="10"/>
  <path d="M597.85 94.0629C655.276 76.8513 715.231 62.6578 775.35 55.5611C812.465 51.1562 849.743 47.8933 887.021 48.5459C933.517 49.28 990.373 61.8421 1009.46 101.649C1016.48 116.332 1020.23 133.054 1017.29 153.121C1016.31 159.973 1014.44 166.662 1011.74 173.024C1000.57 199.127 977.24 220.662 950.566 235.671C934.496 244.726 916.877 251.333 899.339 254.922C896.891 255.412 894.363 255.901 891.916 256.309C836.447 264.874 812.465 234.774 767.274 248.397C764.827 249.131 762.543 249.946 760.259 250.925C719.31 267.403 698.591 307.699 670.938 333.639C625.747 376.138 550.13 393.105 472.229 392.044C366.186 390.576 243.421 353.624 235.753 302.152C225.393 233.224 440.579 141.13 597.85 94.0629Z" stroke="url(#paint6_linear_2878_20287)" stroke-width="1.71725" stroke-miterlimit="10"/>
  <path d="M593.852 91.2077C655.438 72.6093 719.635 57.1923 784.24 49.0351C824.129 44.0592 864.099 40.5516 904.069 41.1226C954.97 41.7752 1017.7 54.9898 1041.35 97.3255C1050.25 113.15 1055.22 131.667 1052.86 154.344C1052.04 162.012 1050.25 169.516 1047.55 176.613C1036.46 205.653 1011.58 229.88 982.867 246.683C965.492 256.798 946.323 264.14 927.317 267.974C924.625 268.545 921.933 269.034 919.241 269.442C857.899 278.578 833.428 242.686 783.669 256.717C781.059 257.451 778.448 258.348 776.001 259.245C731.055 276.375 709.439 321.729 680.399 350.769C631.783 399.467 547.356 419.044 460.482 418.392C340.327 417.576 205.244 376.545 196.598 321.077C185.014 246.928 415.454 145.045 593.852 91.2077Z" stroke="url(#paint7_linear_2878_20287)" stroke-width="1.53306" stroke-miterlimit="10"/>
  <path d="M589.856 88.3529C655.684 68.3678 724.123 51.6456 793.132 42.5912C835.713 36.9627 878.456 33.292 921.118 33.7814C976.342 34.2709 1045.03 48.1381 1073.33 93.0841C1084.1 110.133 1090.3 130.444 1088.5 155.65C1087.93 164.133 1086.22 172.453 1083.45 180.366C1072.43 212.423 1046.09 239.261 1015.17 257.777C996.49 268.953 975.853 276.947 955.378 281.107C952.442 281.678 949.587 282.167 946.65 282.657C879.517 292.201 854.474 250.762 800.066 265.037C797.211 265.771 794.437 266.669 791.664 267.647C742.721 285.43 720.289 335.923 689.863 367.981C637.901 422.878 544.665 445.066 448.818 444.903C314.47 444.74 167.151 399.549 157.526 340.246C144.637 260.632 390.331 148.879 589.856 88.3529Z" stroke="url(#paint8_linear_2878_20287)" stroke-width="1.34879" stroke-miterlimit="10"/>
  <path d="M585.776 85.4976C655.765 64.289 728.527 46.1801 801.86 36.1468C847.132 29.9473 892.649 26.0319 938.003 26.4397C997.632 26.8476 1072.27 41.2042 1105.14 88.9236C1117.71 107.196 1125.21 129.302 1124.07 157.036C1123.66 166.335 1122.03 175.471 1119.26 184.199C1108.24 219.194 1080.51 248.804 1047.39 269.034C1027.41 281.27 1005.3 289.998 983.357 294.403C980.257 295.055 977.076 295.545 973.976 296.034C900.969 306.149 875.519 259.082 816.379 273.602C813.28 274.418 810.262 275.315 807.325 276.294C754.385 294.811 731.055 350.279 699.242 385.437C644.1 446.452 541.891 471.169 437.153 471.495C288.611 472.066 129.056 422.715 118.452 359.415C104.177 274.336 365.37 153.202 585.776 85.4976Z" stroke="url(#paint9_linear_2878_20287)" stroke-width="1.16452" stroke-miterlimit="10"/>
  <path d="M581.78 82.6428C655.929 59.9659 733.014 40.6334 810.752 29.6212C858.716 22.8508 907.006 18.6906 955.052 19.0169C1019 19.3432 1099.6 34.2708 1137.12 84.6006C1151.56 104.015 1160.37 127.997 1159.72 158.26C1159.47 168.375 1157.92 178.326 1155.15 187.789C1144.14 225.72 1115.01 258.022 1079.78 279.965C1058.48 293.261 1034.83 302.723 1011.42 307.373C1008.07 308.025 1004.73 308.596 1001.38 309.086C922.586 319.772 896.565 266.913 832.857 281.841C829.513 282.657 826.25 283.554 823.15 284.614C766.213 303.784 742.068 364.31 708.869 402.567C650.382 469.864 539.199 497.353 425.488 498.006C262.835 499.474 90.963 445.718 79.3798 378.503C63.7996 288.04 340.246 157.036 581.78 82.6428Z" stroke="url(#paint10_linear_2878_20287)" stroke-width="0.980247" stroke-miterlimit="10"/>
  <path d="M577.782 79.7877C656.091 55.7241 737.5 35.0864 819.642 23.177C870.298 15.8355 921.362 11.5122 972.1 11.6754C1040.46 11.9201 1126.92 27.3371 1169.1 80.3587C1185.41 100.915 1195.36 126.773 1195.36 159.565C1195.36 170.577 1193.81 181.263 1191.12 191.541C1180.11 232.408 1149.52 267.403 1112.16 291.14C1089.56 305.497 1064.44 315.693 1039.56 320.506C1035.97 321.24 1032.46 321.811 1028.87 322.3C944.202 333.557 917.773 274.989 849.334 290.161C845.745 290.977 842.319 291.874 838.975 293.016C778.041 312.838 753.08 378.503 718.412 419.779C656.662 493.356 536.507 523.375 413.823 524.598C236.976 526.637 52.8685 468.803 40.3065 397.673C23.4211 301.663 315.121 160.87 577.782 79.7877Z" stroke="url(#paint11_linear_2878_20287)" stroke-width="0.796058" stroke-miterlimit="10"/>
  <path d="M1226.93 195.293C1208.41 269.524 1129.53 325.971 1056.2 335.515C965.737 347.425 938.737 282.983 865.73 298.563C792.561 314.143 765.968 390.25 727.874 437.072C568.646 632.681 24.0738 543.523 1.23369 416.761C-17.0384 315.367 289.997 164.622 573.785 76.9328C707.074 35.7391 848.927 4.00775 989.148 4.33404C1090.13 4.57875 1229.21 35.005 1230.93 160.87C1231.09 172.698 1229.7 184.2 1226.93 195.293Z" stroke="url(#paint12_linear_2878_20287)" stroke-width="0.611788" stroke-miterlimit="10"/>
  <path d="M851.129 7.67831C849.171 7.67831 847.54 6.04688 847.54 4.08915C847.54 2.13143 849.171 0.5 851.129 0.5C853.087 0.5 854.718 2.13143 854.718 4.08915C854.718 6.04688 853.087 7.67831 851.129 7.67831Z" fill="url(#paint13_radial_2878_20287)"/>
  <path d="M851.129 6.373C852.436 6.373 853.495 5.3139 853.495 4.00742C853.495 2.70095 852.436 1.64185 851.129 1.64185C849.823 1.64185 848.764 2.70095 848.764 4.00742C848.764 5.3139 849.823 6.373 851.129 6.373Z" fill="url(#paint14_linear_2878_20287)"/>
  <path d="M851.129 7.67831C849.171 7.67831 847.54 6.04688 847.54 4.08915C847.54 2.13143 849.171 0.5 851.129 0.5C853.087 0.5 854.718 2.13143 854.718 4.08915C854.718 6.04688 853.087 7.67831 851.129 7.67831Z" fill="url(#paint15_radial_2878_20287)"/>
  <path d="M851.129 6.373C852.436 6.373 853.495 5.3139 853.495 4.00742C853.495 2.70095 852.436 1.64185 851.129 1.64185C849.823 1.64185 848.764 2.70095 848.764 4.00742C848.764 5.3139 849.823 6.373 851.129 6.373Z" fill="url(#paint16_linear_2878_20287)"/>
  <path d="M851.129 7.67831C849.171 7.67831 847.54 6.04688 847.54 4.08915C847.54 2.13143 849.171 0.5 851.129 0.5C853.087 0.5 854.718 2.13143 854.718 4.08915C854.718 6.04688 853.087 7.67831 851.129 7.67831Z" fill="url(#paint17_radial_2878_20287)"/>
  <path d="M851.129 6.373C852.436 6.373 853.495 5.3139 853.495 4.00742C853.495 2.70095 852.436 1.64185 851.129 1.64185C849.823 1.64185 848.764 2.70095 848.764 4.00742C848.764 5.3139 849.823 6.373 851.129 6.373Z" fill="url(#paint18_linear_2878_20287)"/>
  <path d="M851.129 7.67831C849.171 7.67831 847.54 6.04688 847.54 4.08915C847.54 2.13143 849.171 0.5 851.129 0.5C853.087 0.5 854.718 2.13143 854.718 4.08915C854.718 6.04688 853.087 7.67831 851.129 7.67831Z" fill="url(#paint19_radial_2878_20287)"/>
  <path d="M851.129 6.373C852.436 6.373 853.495 5.3139 853.495 4.00742C853.495 2.70095 852.436 1.64185 851.129 1.64185C849.823 1.64185 848.764 2.70095 848.764 4.00742C848.764 5.3139 849.823 6.373 851.129 6.373Z" fill="url(#paint20_linear_2878_20287)"/>
  <path d="M851.129 5.39429C851.895 5.39429 852.516 4.77343 852.516 4.00757C852.516 3.2417 851.895 2.62085 851.129 2.62085C850.363 2.62085 849.742 3.2417 849.742 4.00757C849.742 4.77343 850.363 5.39429 851.129 5.39429Z" fill="white"/>
  <path d="M627.379 276.702C692.883 276.702 745.984 223.601 745.984 158.097C745.984 92.5928 692.883 39.4915 627.379 39.4915C561.875 39.4915 508.773 92.5928 508.773 158.097C508.773 223.601 561.875 276.702 627.379 276.702Z" fill="url(#paint21_radial_2878_20287)"/>
  <path d="M627.542 259.98C683.811 259.98 729.425 214.365 729.425 158.097C729.425 101.828 683.811 56.2136 627.542 56.2136C571.274 56.2136 525.659 101.828 525.659 158.097C525.659 214.365 571.274 259.98 627.542 259.98Z" fill="url(#paint22_linear_2878_20287)"/>
  <path d="M627.542 259.98C683.811 259.98 729.425 214.365 729.425 158.097C729.425 101.828 683.811 56.2136 627.542 56.2136C571.274 56.2136 525.659 101.828 525.659 158.097C525.659 214.365 571.274 259.98 627.542 259.98Z" fill="url(#paint23_radial_2878_20287)"/>
  <path d="M731.056 176.124C708.216 181.589 684.641 186.484 665.717 200.188C648.668 212.587 634.23 223.844 613.837 230.043C590.345 237.221 566.199 237.792 542.054 232.816C521.009 228.493 471.821 215.278 470.026 187.299C467.742 151 591.568 118.942 621.831 111.111C654.46 102.71 688.394 95.6944 722.164 94.3077C743.047 93.4104 763.848 91.4527 784.811 92.6762C805.123 93.8998 828.86 102.139 817.685 127.018C813.28 136.807 805.286 144.719 796.313 150.674C784.24 158.749 770.21 164.378 756.506 169.027C748.349 171.801 739.784 174.003 731.056 176.124Z" stroke="url(#paint24_linear_2878_20287)" stroke-width="2.82279" stroke-miterlimit="10"/>
  <path d="M617.915 108.338C654.622 98.2229 692.961 90.3105 731.055 87.9449C754.629 86.4766 778.204 84.2742 801.859 85.4162C826.576 86.5582 855.207 95.2048 849.66 122.858C848.029 131.178 844.603 139.172 839.138 146.677C837.098 149.45 834.814 152.06 832.286 154.426C820.458 165.683 804.796 173.758 788.889 180.121C779.346 183.955 769.231 186.891 759.034 189.175C757.648 189.502 756.261 189.828 754.793 190.073C728.445 195.62 706.992 194.478 685.049 206.387C683.825 207.04 682.602 207.774 681.378 208.508C660.333 221.559 644.752 237.303 623.299 247.173C596.054 259.816 563.507 263.161 530.389 259.245C495.231 255.085 433.726 238.282 430.953 206.387C427.445 164.704 566.362 122.45 617.915 108.338Z" stroke="url(#paint25_linear_2878_20287)" stroke-width="2.63852" stroke-miterlimit="10"/>
  <path d="M613.919 105.483C654.786 93.8997 697.448 84.7636 739.947 81.4192C766.213 79.3799 792.561 77.0143 818.908 77.9932C847.948 79.1352 881.8 88.5159 881.637 118.616C881.555 128.16 879.761 137.948 874.785 147.982C872.99 151.571 870.788 154.997 868.178 158.178C856.594 172.453 839.301 183.139 821.274 191.296C810.425 196.191 798.76 199.78 787.177 202.39C785.545 202.716 783.914 203.124 782.283 203.369C750.143 209.568 728.201 202.553 701.527 214.87C700.058 215.523 698.59 216.339 697.203 217.073C672.161 230.777 655.439 251.251 632.843 264.548C601.846 282.901 560.897 289.101 518.724 285.838C469.455 282.004 395.633 261.366 391.88 225.556C386.986 178.408 541.157 126.039 613.919 105.483Z" stroke="url(#paint26_linear_2878_20287)" stroke-width="2.45425" stroke-miterlimit="10"/>
  <path d="M609.921 102.628C654.949 89.5764 701.852 79.2168 748.838 74.975C777.877 72.3647 806.917 69.7545 835.956 70.6517C869.4 71.7122 908.718 81.9086 913.612 114.374C915.244 125.223 914.917 136.725 910.431 149.287C908.8 153.692 906.679 157.933 904.068 161.93C892.648 179.224 873.805 192.601 853.576 202.39C841.421 208.345 828.288 212.668 815.155 215.523C813.361 215.931 811.485 216.257 809.69 216.583C771.678 223.354 749.245 210.547 718.003 223.191C716.29 223.925 714.659 224.659 713.028 225.475C683.988 239.913 666.205 265.2 642.468 281.759C607.8 305.986 558.286 315.041 507.222 312.349C443.759 309.004 357.701 284.37 352.97 244.644C346.608 192.112 516.032 129.791 609.921 102.628Z" stroke="url(#paint27_linear_2878_20287)" stroke-width="2.27006" stroke-miterlimit="10"/>
  <path d="M605.843 99.7728C655.031 85.3346 706.339 73.6699 757.648 68.4493C789.379 65.1864 821.192 62.413 852.924 63.2287C890.692 64.2075 935.801 75.2197 945.508 110.051C948.852 122.205 949.994 135.42 945.997 150.51C944.61 155.731 942.571 160.788 939.961 165.52C928.622 185.749 908.229 201.819 885.879 213.402C872.419 220.417 857.818 225.475 843.217 228.575C841.177 228.982 839.138 229.39 837.099 229.717C793.295 237.14 770.292 218.46 734.4 231.511C732.442 232.245 730.566 232.979 728.69 233.877C695.654 248.967 676.892 279.231 651.85 298.971C613.592 329.316 555.513 341.062 495.477 338.941C417.82 336.168 319.527 307.536 313.816 263.813C306.23 205.816 490.827 133.543 605.843 99.7728Z" stroke="url(#paint28_linear_2878_20287)" stroke-width="2.08579" stroke-miterlimit="10"/>
  <path d="M601.846 96.9178C655.194 81.0929 710.744 68.2046 766.539 62.0051C800.963 58.1713 835.468 55.2347 869.972 55.8873C912.145 56.7846 963.046 68.6124 977.484 105.891C982.704 119.268 985.07 134.278 981.644 151.897C980.42 157.933 978.544 163.807 975.852 169.353C964.596 192.52 942.734 211.281 918.263 224.578C903.498 232.653 887.347 238.445 871.278 241.789C868.994 242.279 866.71 242.686 864.507 243.013C814.83 251.007 791.337 226.617 750.878 239.995C748.675 240.729 746.554 241.544 744.515 242.442C707.482 258.185 687.741 293.506 661.475 316.346C619.71 352.645 552.903 367.083 483.894 365.452C392.044 363.331 281.514 330.539 274.825 282.983C265.771 219.52 465.703 137.296 601.846 96.9178Z" stroke="url(#paint29_linear_2878_20287)" stroke-width="1.90152" stroke-miterlimit="10"/>
  <path d="M597.85 94.0629C655.276 76.8513 715.231 62.6578 775.35 55.5611C812.465 51.1562 849.743 47.8933 887.021 48.5459C933.517 49.28 990.373 61.8421 1009.46 101.649C1016.48 116.332 1020.23 133.054 1017.29 153.121C1016.31 159.973 1014.44 166.662 1011.74 173.024C1000.57 199.127 977.24 220.662 950.566 235.671C934.496 244.726 916.877 251.333 899.339 254.922C896.891 255.412 894.363 255.901 891.916 256.309C836.447 264.874 812.465 234.774 767.274 248.397C764.827 249.131 762.543 249.946 760.259 250.925C719.31 267.403 698.591 307.699 670.938 333.639C625.747 376.138 550.13 393.105 472.229 392.044C366.186 390.576 243.421 353.624 235.753 302.152C225.393 233.224 440.579 141.13 597.85 94.0629Z" stroke="url(#paint30_linear_2878_20287)" stroke-width="1.71725" stroke-miterlimit="10"/>
  <path d="M593.852 91.2077C655.438 72.6093 719.635 57.1923 784.24 49.0351C824.129 44.0592 864.099 40.5516 904.069 41.1226C954.97 41.7752 1017.7 54.9898 1041.35 97.3255C1050.25 113.15 1055.22 131.667 1052.86 154.344C1052.04 162.012 1050.25 169.516 1047.55 176.613C1036.46 205.653 1011.58 229.88 982.867 246.683C965.492 256.798 946.323 264.14 927.317 267.974C924.625 268.545 921.933 269.034 919.241 269.442C857.899 278.578 833.428 242.686 783.669 256.717C781.059 257.451 778.448 258.348 776.001 259.245C731.055 276.375 709.439 321.729 680.399 350.769C631.783 399.467 547.356 419.044 460.482 418.392C340.327 417.576 205.244 376.545 196.598 321.077C185.014 246.928 415.454 145.045 593.852 91.2077Z" stroke="url(#paint31_linear_2878_20287)" stroke-width="1.53306" stroke-miterlimit="10"/>
  <path d="M589.856 88.3529C655.684 68.3678 724.123 51.6456 793.132 42.5912C835.713 36.9627 878.456 33.292 921.118 33.7814C976.342 34.2709 1045.03 48.1381 1073.33 93.0841C1084.1 110.133 1090.3 130.444 1088.5 155.65C1087.93 164.133 1086.22 172.453 1083.45 180.366C1072.43 212.423 1046.09 239.261 1015.17 257.777C996.49 268.953 975.853 276.947 955.378 281.107C952.442 281.678 949.587 282.167 946.65 282.657C879.517 292.201 854.474 250.762 800.066 265.037C797.211 265.771 794.437 266.669 791.664 267.647C742.721 285.43 720.289 335.923 689.863 367.981C637.901 422.878 544.665 445.066 448.818 444.903C314.47 444.74 167.151 399.549 157.526 340.246C144.637 260.632 390.331 148.879 589.856 88.3529Z" stroke="url(#paint32_linear_2878_20287)" stroke-width="1.34879" stroke-miterlimit="10"/>
  <path d="M585.776 85.4976C655.765 64.289 728.527 46.1801 801.86 36.1468C847.132 29.9473 892.649 26.0319 938.003 26.4397C997.632 26.8476 1072.27 41.2042 1105.14 88.9236C1117.71 107.196 1125.21 129.302 1124.07 157.036C1123.66 166.335 1122.03 175.471 1119.26 184.199C1108.24 219.194 1080.51 248.804 1047.39 269.034C1027.41 281.27 1005.3 289.998 983.357 294.403C980.257 295.055 977.076 295.545 973.976 296.034C900.969 306.149 875.519 259.082 816.379 273.602C813.28 274.418 810.262 275.315 807.325 276.294C754.385 294.811 731.055 350.279 699.242 385.437C644.1 446.452 541.891 471.169 437.153 471.495C288.611 472.066 129.056 422.715 118.452 359.415C104.177 274.336 365.37 153.202 585.776 85.4976Z" stroke="url(#paint33_linear_2878_20287)" stroke-width="1.16452" stroke-miterlimit="10"/>
  <path d="M581.78 82.6428C655.929 59.9659 733.014 40.6334 810.752 29.6212C858.716 22.8508 907.006 18.6906 955.052 19.0169C1019 19.3432 1099.6 34.2708 1137.12 84.6006C1151.56 104.015 1160.37 127.997 1159.72 158.26C1159.47 168.375 1157.92 178.326 1155.15 187.789C1144.14 225.72 1115.01 258.022 1079.78 279.965C1058.48 293.261 1034.83 302.723 1011.42 307.373C1008.07 308.025 1004.73 308.596 1001.38 309.086C922.586 319.772 896.565 266.913 832.857 281.841C829.513 282.657 826.25 283.554 823.15 284.614C766.213 303.784 742.068 364.31 708.869 402.567C650.382 469.864 539.199 497.353 425.488 498.006C262.835 499.474 90.963 445.718 79.3798 378.503C63.7996 288.04 340.246 157.036 581.78 82.6428Z" stroke="url(#paint34_linear_2878_20287)" stroke-width="0.980247" stroke-miterlimit="10"/>
  <path d="M577.782 79.7877C656.091 55.7241 737.5 35.0864 819.642 23.177C870.298 15.8355 921.362 11.5122 972.1 11.6754C1040.46 11.9201 1126.92 27.3371 1169.1 80.3587C1185.41 100.915 1195.36 126.773 1195.36 159.565C1195.36 170.577 1193.81 181.263 1191.12 191.541C1180.11 232.408 1149.52 267.403 1112.16 291.14C1089.56 305.497 1064.44 315.693 1039.56 320.506C1035.97 321.24 1032.46 321.811 1028.87 322.3C944.202 333.557 917.773 274.989 849.334 290.161C845.745 290.977 842.319 291.874 838.975 293.016C778.041 312.838 753.08 378.503 718.412 419.779C656.662 493.356 536.507 523.375 413.823 524.598C236.976 526.637 52.8685 468.803 40.3065 397.673C23.4211 301.663 315.121 160.87 577.782 79.7877Z" stroke="url(#paint35_linear_2878_20287)" stroke-width="0.796058" stroke-miterlimit="10"/>
  <path d="M1226.93 195.293C1208.41 269.524 1129.53 325.971 1056.2 335.515C965.737 347.425 938.737 282.983 865.73 298.563C792.561 314.143 765.968 390.25 727.874 437.072C568.646 632.681 24.0738 543.523 1.23369 416.761C-17.0384 315.367 289.997 164.622 573.785 76.9328C707.074 35.7391 848.927 4.00775 989.148 4.33404C1090.13 4.57875 1229.21 35.005 1230.93 160.87C1231.09 172.698 1229.7 184.2 1226.93 195.293Z" stroke="url(#paint36_linear_2878_20287)" stroke-width="0.611788" stroke-miterlimit="10"/>
  <defs>
    <linearGradient id="paint0_linear_2878_20287" x1="463.351" y1="134.453" x2="821.491" y2="102.151" gradientUnits="userSpaceOnUse">
      <stop stop-color="#069186"/>
      <stop offset="1" stop-color="#2671C1"/>
    </linearGradient>
    <linearGradient id="paint1_linear_2878_20287" x1="421.215" y1="129.645" x2="849.639" y2="85.9797" gradientUnits="userSpaceOnUse">
      <stop stop-color="#098E8B"/>
      <stop offset="1" stop-color="#2473BC"/>
    </linearGradient>
    <linearGradient id="paint2_linear_2878_20287" x1="378.707" y1="124.69" x2="878.655" y2="69.6933" gradientUnits="userSpaceOnUse">
      <stop stop-color="#0B8C90"/>
      <stop offset="1" stop-color="#2176B7"/>
    </linearGradient>
    <linearGradient id="paint3_linear_2878_20287" x1="336.202" y1="119.302" x2="908.705" y2="52.914" gradientUnits="userSpaceOnUse">
      <stop stop-color="#0E8995"/>
      <stop offset="1" stop-color="#1F78B2"/>
    </linearGradient>
    <linearGradient id="paint4_linear_2878_20287" x1="293.528" y1="113.685" x2="939.758" y2="35.8221" gradientUnits="userSpaceOnUse">
      <stop stop-color="#11869A"/>
      <stop offset="1" stop-color="#1C7AAD"/>
    </linearGradient>
    <linearGradient id="paint5_linear_2878_20287" x1="250.877" y1="107.873" x2="971.456" y2="18.4604" gradientUnits="userSpaceOnUse">
      <stop stop-color="#13849F"/>
      <stop offset="1" stop-color="#1A7DA8"/>
    </linearGradient>
    <linearGradient id="paint6_linear_2878_20287" x1="208.184" y1="101.655" x2="1003.42" y2="0.662528" gradientUnits="userSpaceOnUse">
      <stop stop-color="#1681A4"/>
      <stop offset="1" stop-color="#177FA3"/>
    </linearGradient>
    <linearGradient id="paint7_linear_2878_20287" x1="165.382" y1="95.3515" x2="1035.49" y2="-17.225" gradientUnits="userSpaceOnUse">
      <stop stop-color="#197EA8"/>
      <stop offset="1" stop-color="#15819F"/>
    </linearGradient>
    <linearGradient id="paint8_linear_2878_20287" x1="122.651" y1="88.801" x2="1067.65" y2="-35.3773" gradientUnits="userSpaceOnUse">
      <stop stop-color="#1B7CAD"/>
      <stop offset="1" stop-color="#13849A"/>
    </linearGradient>
    <linearGradient id="paint9_linear_2878_20287" x1="79.7424" y1="82.1973" x2="1099.69" y2="-53.5691" gradientUnits="userSpaceOnUse">
      <stop stop-color="#1E79B2"/>
      <stop offset="1" stop-color="#108695"/>
    </linearGradient>
    <linearGradient id="paint10_linear_2878_20287" x1="37.0956" y1="75.4502" x2="1132.02" y2="-71.9236" gradientUnits="userSpaceOnUse">
      <stop stop-color="#2176B7"/>
      <stop offset="1" stop-color="#0E8890"/>
    </linearGradient>
    <linearGradient id="paint11_linear_2878_20287" x1="-5.81457" y1="68.6108" x2="1164.04" y2="-90.346" gradientUnits="userSpaceOnUse">
      <stop stop-color="#2374BC"/>
      <stop offset="1" stop-color="#0B8B8B"/>
    </linearGradient>
    <linearGradient id="paint12_linear_2878_20287" x1="-48.5451" y1="61.6052" x2="1196.23" y2="-108.949" gradientUnits="userSpaceOnUse">
      <stop stop-color="#2671C1"/>
      <stop offset="1" stop-color="#098D86"/>
    </linearGradient>
    <radialGradient id="paint13_radial_2878_20287" cx="0" cy="0" r="1" gradientUnits="userSpaceOnUse" gradientTransform="translate(851.095 4.04095) scale(3.60947 3.60947)">
      <stop stop-color="#296D85"/>
      <stop offset="0.114" stop-color="#237385" stop-opacity="0.8771"/>
      <stop offset="0.609" stop-color="#0E8986" stop-opacity="0.3437"/>
      <stop offset="0.9279" stop-color="#069186" stop-opacity="0"/>
    </radialGradient>
    <linearGradient id="paint14_linear_2878_20287" x1="848.713" y1="4.04087" x2="853.478" y2="4.04087" gradientUnits="userSpaceOnUse">
      <stop stop-color="#296D85"/>
      <stop offset="1" stop-color="#069186"/>
    </linearGradient>
    <radialGradient id="paint15_radial_2878_20287" cx="0" cy="0" r="1" gradientUnits="userSpaceOnUse" gradientTransform="translate(851.095 4.04095) scale(3.60947 3.60947)">
      <stop stop-color="#296D85"/>
      <stop offset="0.114" stop-color="#237385" stop-opacity="0.8771"/>
      <stop offset="0.609" stop-color="#0E8986" stop-opacity="0.3437"/>
      <stop offset="0.9279" stop-color="#069186" stop-opacity="0"/>
    </radialGradient>
    <linearGradient id="paint16_linear_2878_20287" x1="848.713" y1="4.04087" x2="853.478" y2="4.04087" gradientUnits="userSpaceOnUse">
      <stop stop-color="#296D85"/>
      <stop offset="1" stop-color="#069186"/>
    </linearGradient>
    <radialGradient id="paint17_radial_2878_20287" cx="0" cy="0" r="1" gradientUnits="userSpaceOnUse" gradientTransform="translate(851.095 4.04095) scale(3.60947 3.60947)">
      <stop stop-color="#296D85"/>
      <stop offset="0.114" stop-color="#237385" stop-opacity="0.8771"/>
      <stop offset="0.609" stop-color="#0E8986" stop-opacity="0.3437"/>
      <stop offset="0.9279" stop-color="#069186" stop-opacity="0"/>
    </radialGradient>
    <linearGradient id="paint18_linear_2878_20287" x1="848.713" y1="4.04087" x2="853.478" y2="4.04087" gradientUnits="userSpaceOnUse">
      <stop stop-color="#296D85"/>
      <stop offset="1" stop-color="#069186"/>
    </linearGradient>
    <radialGradient id="paint19_radial_2878_20287" cx="0" cy="0" r="1" gradientUnits="userSpaceOnUse" gradientTransform="translate(851.095 4.04095) scale(3.60947 3.60947)">
      <stop stop-color="#296D85"/>
      <stop offset="0.114" stop-color="#237385" stop-opacity="0.8771"/>
      <stop offset="0.609" stop-color="#0E8986" stop-opacity="0.3437"/>
      <stop offset="0.9279" stop-color="#069186" stop-opacity="0"/>
    </radialGradient>
    <linearGradient id="paint20_linear_2878_20287" x1="848.713" y1="4.04087" x2="853.478" y2="4.04087" gradientUnits="userSpaceOnUse">
      <stop stop-color="#296D85"/>
      <stop offset="1" stop-color="#069186"/>
    </linearGradient>
    <radialGradient id="paint21_radial_2878_20287" cx="0" cy="0" r="1" gradientUnits="userSpaceOnUse" gradientTransform="translate(627.36 158.101) scale(118.582 118.582)">
      <stop offset="0.777" stop-color="#0A8C86"/>
      <stop offset="1" stop-color="#0A8C86" stop-opacity="0"/>
    </radialGradient>
    <linearGradient id="paint22_linear_2878_20287" x1="693.311" y1="80.2849" x2="561.852" y2="235.905" gradientUnits="userSpaceOnUse">
      <stop stop-color="#069186"/>
      <stop offset="1" stop-color="#296D85"/>
    </linearGradient>
    <radialGradient id="paint23_radial_2878_20287" cx="0" cy="0" r="1" gradientUnits="userSpaceOnUse" gradientTransform="translate(606.038 22.1639) rotate(130.189) scale(335.542)">
      <stop offset="0.136" stop-color="#108686" stop-opacity="0"/>
      <stop offset="0.2121" stop-color="#107F80" stop-opacity="0.1561"/>
      <stop offset="0.3245" stop-color="#106B71" stop-opacity="0.3866"/>
      <stop offset="0.4593" stop-color="#0F4A57" stop-opacity="0.663"/>
      <stop offset="0.6103" stop-color="#0E1D33" stop-opacity="0.9729"/>
      <stop offset="0.6236" stop-color="#0E1930"/>
    </radialGradient>
    <linearGradient id="paint24_linear_2878_20287" x1="463.351" y1="134.453" x2="821.491" y2="102.151" gradientUnits="userSpaceOnUse">
      <stop stop-color="#069186"/>
      <stop offset="1" stop-color="#2671C1"/>
    </linearGradient>
    <linearGradient id="paint25_linear_2878_20287" x1="421.215" y1="129.645" x2="849.639" y2="85.9797" gradientUnits="userSpaceOnUse">
      <stop stop-color="#098E8B"/>
      <stop offset="1" stop-color="#2473BC"/>
    </linearGradient>
    <linearGradient id="paint26_linear_2878_20287" x1="378.707" y1="124.69" x2="878.655" y2="69.6933" gradientUnits="userSpaceOnUse">
      <stop stop-color="#0B8C90"/>
      <stop offset="1" stop-color="#2176B7"/>
    </linearGradient>
    <linearGradient id="paint27_linear_2878_20287" x1="336.202" y1="119.302" x2="908.705" y2="52.914" gradientUnits="userSpaceOnUse">
      <stop stop-color="#0E8995"/>
      <stop offset="1" stop-color="#1F78B2"/>
    </linearGradient>
    <linearGradient id="paint28_linear_2878_20287" x1="293.528" y1="113.685" x2="939.758" y2="35.8221" gradientUnits="userSpaceOnUse">
      <stop stop-color="#11869A"/>
      <stop offset="1" stop-color="#1C7AAD"/>
    </linearGradient>
    <linearGradient id="paint29_linear_2878_20287" x1="250.877" y1="107.873" x2="971.456" y2="18.4604" gradientUnits="userSpaceOnUse">
      <stop stop-color="#13849F"/>
      <stop offset="1" stop-color="#1A7DA8"/>
    </linearGradient>
    <linearGradient id="paint30_linear_2878_20287" x1="208.184" y1="101.655" x2="1003.42" y2="0.662528" gradientUnits="userSpaceOnUse">
      <stop stop-color="#1681A4"/>
      <stop offset="1" stop-color="#177FA3"/>
    </linearGradient>
    <linearGradient id="paint31_linear_2878_20287" x1="165.382" y1="95.3515" x2="1035.49" y2="-17.225" gradientUnits="userSpaceOnUse">
      <stop stop-color="#197EA8"/>
      <stop offset="1" stop-color="#15819F"/>
    </linearGradient>
    <linearGradient id="paint32_linear_2878_20287" x1="122.651" y1="88.801" x2="1067.65" y2="-35.3773" gradientUnits="userSpaceOnUse">
      <stop stop-color="#1B7CAD"/>
      <stop offset="1" stop-color="#13849A"/>
    </linearGradient>
    <linearGradient id="paint33_linear_2878_20287" x1="79.7424" y1="82.1973" x2="1099.69" y2="-53.5691" gradientUnits="userSpaceOnUse">
      <stop stop-color="#1E79B2"/>
      <stop offset="1" stop-color="#108695"/>
    </linearGradient>
    <linearGradient id="paint34_linear_2878_20287" x1="37.0956" y1="75.4502" x2="1132.02" y2="-71.9236" gradientUnits="userSpaceOnUse">
      <stop stop-color="#2176B7"/>
      <stop offset="1" stop-color="#0E8890"/>
    </linearGradient>
    <linearGradient id="paint35_linear_2878_20287" x1="-5.81457" y1="68.6108" x2="1164.04" y2="-90.346" gradientUnits="userSpaceOnUse">
      <stop stop-color="#2374BC"/>
      <stop offset="1" stop-color="#0B8B8B"/>
    </linearGradient>
    <linearGradient id="paint36_linear_2878_20287" x1="-48.5451" y1="61.6052" x2="1196.23" y2="-108.949" gradientUnits="userSpaceOnUse">
      <stop stop-color="#2671C1"/>
      <stop offset="1" stop-color="#098D86"/>
    </linearGradient>
  </defs>
</svg>
