<svg width="1235" height="650" viewBox="0 0 1235 650" fill="none" xmlns="http://www.w3.org/2000/svg">
<g opacity="0.7" clip-path="url(#clip0_3860_69008)">
<path d="M460.632 534.1C543.917 534.1 611.432 466.585 611.432 383.3C611.432 300.015 543.917 232.5 460.632 232.5C377.348 232.5 309.832 300.015 309.832 383.3C309.832 466.585 377.348 534.1 460.632 534.1Z" fill="url(#paint0_radial_3860_69008)"/>
<path d="M460.032 513.6C532.271 513.6 590.832 455.039 590.832 382.8C590.832 310.561 532.271 252 460.032 252C387.794 252 329.232 310.561 329.232 382.8C329.232 455.039 387.794 513.6 460.032 513.6Z" fill="url(#paint1_linear_3860_69008)"/>
<path d="M460.032 513.6C532.271 513.6 590.832 455.039 590.832 382.8C590.832 310.561 532.271 252 460.032 252C387.794 252 329.232 310.561 329.232 382.8C329.232 455.039 387.794 513.6 460.032 513.6Z" fill="url(#paint2_radial_3860_69008)"/>
<path d="M811.232 133.6C853.132 91.9002 910.632 76.0002 957.132 93.0002C1029.23 119.5 1058.03 219.4 1029.43 252.5C982.232 307 794.632 162.5 662.232 224C644.532 232.2 594.432 259.6 522.632 267.4C507.132 269.1 511.732 267.6 468.932 270.4C421.632 273.6 371.832 274.9 327.532 293.8C306.632 302.7 287.432 316.4 276.132 336.5C261.232 362.9 261.832 398.4 272.332 426.2C290.932 475.1 340.732 503.8 387.232 521.7C456.232 548.3 526.832 556.9 599.832 560.3C805.932 569.8 1032.43 557 1227.53 637.2C1239.83 642.3 1252.03 647.6 1264.13 653.3" stroke="url(#paint3_linear_3860_69008)" stroke-width="2.1325" stroke-miterlimit="10"/>
<path d="M811.932 136.5C851.932 97.3999 908.932 82.3999 955.332 98.8999C1013.33 119.7 1044.13 187.4 1038.33 229.8C1037.03 239 1034.03 247 1029.23 252.9C1019.33 265.2 1002.53 267.8 980.832 265.6C959.432 263.4 933.132 256.2 904.132 247.8C838.532 228.9 760.432 205.5 692.832 225C685.832 227 679.032 229.6 672.232 232.5C653.732 240.5 604.532 266 535.232 273C519.932 274.5 523.532 274 482.732 275.6C469.832 276.1 456.832 275.5 443.932 275.1C440.932 275 437.932 274.9 434.832 274.8C425.232 274.4 415.532 274 406.332 273.4C387.032 272.1 367.732 271.7 347.732 275.8C335.632 278.3 323.532 282.7 312.532 288.2C292.032 298.5 272.932 312.2 262.032 332.7C252.532 350.6 249.732 372.2 252.232 392.9C253.532 403.6 256.132 413.9 259.932 423.4C271.632 452.3 294.232 474 320.532 490.5C338.232 501.7 358.032 510.6 377.832 517.8C386.432 520.9 395.132 523.9 403.832 526.5C465.532 545.4 528.532 551.7 593.232 553.9C620.432 554.8 647.832 555.3 675.532 555.6C749.932 556.5 825.632 556.3 901.032 559.5C955.232 561.8 1006.43 566.2 1056.83 574.3C1116.33 583.9 1173.93 598.6 1228.33 620.4C1240.93 625.4 1253.33 630.8 1265.43 636.4" stroke="url(#paint4_linear_3860_69008)" stroke-width="2.0355" stroke-miterlimit="10"/>
<path d="M812.532 139.4C850.732 102.9 907.032 88.6001 953.432 104.7C1010.33 124.5 1041.73 188.8 1037.13 230.5C1036.13 239.5 1033.43 247.3 1028.93 253.2C1019.83 265.5 1003.93 268.5 983.432 267.4C962.832 266.3 937.332 260.3 909.132 253C844.932 236.4 768.732 215.3 702.332 233.8C695.432 235.7 688.732 238.2 682.132 240.9C662.732 248.7 614.632 272.4 547.732 278.5C532.632 279.9 535.232 279.9 496.332 280.6C481.032 280.9 465.732 279.1 450.632 277.6C447.132 277.2 443.532 276.8 440.032 276.4C428.832 275 417.532 273.5 406.932 271.5C384.832 267.2 362.732 263.6 338.532 267.6C324.132 270 309.732 275.4 297.132 282.5C277.032 293.9 258.132 307.9 247.632 328.7C238.432 346.9 235.932 368.8 238.832 389.7C240.332 400.5 243.232 410.8 247.232 420.3C259.632 449.2 282.932 470.5 309.732 486.9C327.532 497.8 347.432 506.5 368.032 513.6C376.732 516.6 385.532 519.5 394.432 522C457.032 540.1 520.932 545.8 586.332 547.2C613.832 547.8 641.632 547.9 669.532 547.8C744.832 547.5 821.132 546 897.332 547.3C953.932 548.3 1004.63 551.7 1054.83 558.8C1115.73 567.5 1174.23 581.9 1228.83 603.2C1241.73 608.2 1254.23 613.5 1266.53 619" stroke="url(#paint5_linear_3860_69008)" stroke-width="1.9385" stroke-miterlimit="10"/>
<path d="M813.232 142.4C849.632 108.5 905.332 95.0001 951.632 110.6C1007.43 129.4 1039.53 190.4 1036.03 231.4C1035.33 240.1 1032.83 247.7 1028.73 253.6C1020.33 265.9 1005.53 269.3 986.032 269.3C966.332 269.3 941.632 264.6 914.132 258.3C851.332 244 777.032 225.2 711.932 242.6C705.232 244.4 698.632 246.8 692.032 249.2C671.732 256.7 624.732 278.6 560.232 283.9C545.432 285.1 546.932 285.4 509.932 285.5C492.232 285.5 474.632 282.7 457.332 279.9C453.232 279.3 449.232 278.6 445.232 277.8C432.432 275.5 419.532 272.9 407.632 269.3C382.732 261.9 357.732 255.2 329.532 259.1C312.932 261.4 296.132 267.8 281.832 276.5C262.032 288.7 243.332 303.3 233.232 324.5C224.432 343.1 222.132 365.2 225.432 386.2C227.132 397.1 230.232 407.5 234.532 416.9C247.532 445.8 271.632 466.8 298.932 483C316.732 493.5 336.932 502.1 358.232 509.2C367.032 512.1 375.932 514.9 385.032 517.3C448.532 534.7 513.232 539.7 579.332 540.4C607.132 540.7 635.232 540.4 663.432 539.9C739.632 538.5 816.632 537.2 893.432 535.1C952.432 533.5 1002.73 537.1 1052.63 543.3C1114.93 551.1 1174.43 565.2 1229.03 586C1242.13 591 1254.93 596.2 1267.33 601.7" stroke="url(#paint6_linear_3860_69008)" stroke-width="1.8415" stroke-miterlimit="10"/>
<path d="M813.831 145.3C848.431 113.9 903.431 101.2 949.731 116.4C1004.33 134.3 1037.13 191.8 1034.83 232.1C1034.33 240.5 1032.13 248 1028.43 253.9C1020.83 266.2 1006.93 270.1 988.631 271.2C969.731 272.3 945.931 268.9 919.131 263.7C857.631 251.8 785.331 235.2 721.531 251.6C714.931 253.3 708.531 255.6 702.031 257.8C680.831 265.1 634.931 285.1 572.931 289.6C558.331 290.7 558.831 291.1 523.831 290.7C503.731 290.5 483.831 286.5 464.431 282.6C459.831 281.7 455.331 280.7 450.831 279.7C436.431 276.4 421.831 272.7 408.731 267.6C381.131 257 353.231 247.3 320.931 251.1C302.031 253.3 282.931 260.6 267.031 271.1C247.431 284.1 229.031 299.3 219.331 320.9C210.831 339.9 208.831 362.2 212.631 383.4C214.531 394.4 217.931 404.8 222.431 414.3C236.131 443.2 260.931 463.9 288.731 479.8C306.531 490 326.931 498.4 349.031 505.4C357.931 508.2 366.931 510.8 376.331 513.2C440.731 529.7 506.331 534.2 573.131 534.1C601.331 534 629.731 533.4 658.131 532.5C735.231 530 812.831 525.5 890.431 523.4C951.831 521.7 1001.73 523 1051.43 528.4C1115.23 535.3 1175.53 549.1 1230.23 569.4C1243.63 574.4 1256.63 579.6 1269.03 585" stroke="url(#paint7_linear_3860_69008)" stroke-width="1.7446" stroke-miterlimit="10"/>
<path d="M814.532 148.3C847.332 119.5 901.732 107.6 947.932 122.2C1001.43 139.1 1034.93 193.2 1033.73 232.9C1033.53 241.1 1031.53 248.4 1028.23 254.3C1021.33 266.5 1008.43 270.9 991.332 273.1C973.232 275.4 950.232 273.1 924.132 269C864.032 259.4 793.632 245.2 731.032 260.4C724.532 262 718.332 264.1 711.932 266.1C689.832 273.1 644.932 291.3 585.432 295C571.032 295.9 570.532 296.4 537.432 295.6C514.932 295.1 492.732 290 471.132 284.9C466.032 283.7 460.932 282.4 455.932 281.1C439.932 276.8 423.732 272 409.332 265.5C378.932 251.8 348.232 239.1 311.832 242.7C290.632 244.8 269.132 252.9 251.732 265.2C232.332 278.9 214.232 294.8 204.932 316.8C196.732 336.2 195.132 358.7 199.232 380.1C201.332 391.2 204.932 401.6 209.732 411.1C224.132 439.9 249.532 460.4 277.932 476.1C295.732 486 316.332 494.2 339.332 501.1C348.332 503.8 357.432 506.3 367.032 508.6C432.332 524.4 498.732 528.3 566.232 527.4C594.732 527 623.432 526 652.132 524.7C730.132 521.1 808.332 515.1 886.732 511.3C950.532 508.2 1000.03 508.5 1049.43 513C1114.73 518.9 1175.93 532.5 1230.73 552.3C1244.33 557.2 1257.53 562.4 1270.13 567.7" stroke="url(#paint8_linear_3860_69008)" stroke-width="1.6476" stroke-miterlimit="10"/>
<path d="M815.132 151.2C846.132 125 899.832 114 946.032 128.1C998.432 144.1 1032.53 194.7 1032.53 233.7C1032.53 241.6 1030.93 248.8 1027.93 254.6C1021.83 266.8 1009.83 271.7 993.832 274.9C976.532 278.4 954.432 277.3 929.032 274.2C870.232 267 801.732 255 740.532 269.2C734.232 270.7 728.032 272.7 721.832 274.5C698.832 281.2 655.032 297.6 597.932 300.5C583.832 301.2 582.232 301.6 551.132 300.6C526.232 299.8 501.732 293.6 477.932 287.4C472.332 285.9 466.732 284.4 461.232 282.7C443.632 277.4 425.832 271.4 410.132 263.5C376.932 246.7 343.432 230.9 302.832 234.4C279.432 236.4 255.432 245.3 236.532 259.4C217.232 273.8 199.632 290.4 190.632 312.8C182.732 332.6 181.432 355.3 185.932 376.9C188.332 388.1 192.132 398.6 197.032 408C212.132 436.8 238.232 457 267.232 472.5C285.032 482.1 305.932 490.2 329.632 496.9C338.632 499.5 348.032 501.9 357.732 504.1C423.932 519.2 491.232 522.4 559.332 520.7C588.232 520 617.232 518.6 646.232 516.9C725.132 512.2 803.932 504.6 883.032 499.2C949.232 494.7 998.232 493.9 1047.43 497.6C1114.13 502.6 1176.23 515.9 1231.13 535.2C1245.03 540.1 1258.43 545.2 1271.13 550.5" stroke="url(#paint9_linear_3860_69008)" stroke-width="1.5506" stroke-miterlimit="10"/>
<path d="M815.832 154.2C844.932 130.5 898.132 120.4 944.132 133.9C995.332 149 1030.13 196.2 1031.33 234.4C1031.53 242.1 1030.23 249.1 1027.63 254.9C1022.23 267.1 1011.23 272.6 996.432 276.7C979.832 281.4 958.632 281.5 934.032 279.5C876.532 274.7 810.032 264.9 750.032 278.1C743.832 279.5 737.832 281.3 731.732 283C707.832 289.4 665.032 303.9 610.532 306.1C596.632 306.7 594.032 307 564.832 305.7C537.532 304.5 510.732 297.3 484.732 290C478.632 288.3 472.532 286.4 466.532 284.4C447.332 278.2 427.932 271 410.832 261.7C374.932 241.7 338.432 223 293.832 226.3C268.132 228.3 241.632 237.9 221.332 253.8C202.132 268.8 184.932 286.1 176.332 308.9C168.832 329.1 167.732 352 172.732 373.8C175.332 385.1 179.332 395.6 184.532 405.1C200.232 433.9 227.032 453.8 256.632 469.1C274.432 478.3 295.532 486.3 320.032 492.9C329.132 495.3 338.632 497.7 348.532 499.8C415.632 514.1 483.832 516.7 552.632 514.2C581.832 513.1 611.132 511.4 640.432 509.3C720.232 503.5 799.732 494.2 879.532 487.3C948.132 481.3 996.732 479.6 1045.73 482.4C1113.93 486.4 1176.93 499.4 1231.83 518.3C1246.03 523.2 1259.53 528.2 1272.33 533.5" stroke="url(#paint10_linear_3860_69008)" stroke-width="1.4537" stroke-miterlimit="10"/>
<path d="M816.432 157.1C843.732 136 896.232 126.7 942.232 139.7C992.332 153.9 1027.73 197.6 1030.23 235.2C1030.73 242.6 1029.63 249.4 1027.43 255.3C1022.83 267.5 1012.63 273.6 999.132 278.7C983.232 284.6 963.032 285.9 939.132 284.9C882.932 282.4 818.432 274.9 759.732 287C753.732 288.3 747.732 290 741.732 291.4C716.832 297.4 675.232 310.1 623.132 311.6C609.432 312 605.832 312.1 578.632 310.7C548.932 309.2 519.832 300.9 491.632 292.4C485.032 290.4 478.432 288.2 471.832 286C451.032 278.8 429.932 270.5 411.632 259.7C372.932 236.6 333.632 214.8 284.932 218C257.032 219.9 228.032 230.2 206.232 248C187.132 263.6 170.332 281.7 162.132 304.9C154.932 325.5 154.132 348.6 159.532 370.6C162.332 382 166.532 392.5 172.032 402C188.432 430.8 215.932 450.5 246.032 465.5C263.832 474.4 285.132 482.2 310.432 488.7C319.632 491 329.232 493.3 339.332 495.3C407.232 508.9 476.332 510.8 545.832 507.6C575.332 506.2 604.932 504.1 634.532 501.6C715.132 494.7 795.332 483.7 875.932 475.3C947.032 467.8 995.132 465.1 1043.83 467.1C1113.43 470 1177.33 482.9 1232.43 501.4C1246.83 506.3 1260.63 511.3 1273.53 516.5" stroke="url(#paint11_linear_3860_69008)" stroke-width="1.3567" stroke-miterlimit="10"/>
<path d="M817.131 160.1C842.631 141.5 894.431 133.1 940.431 145.6C989.331 158.9 1025.33 199.1 1029.13 236C1029.83 243.1 1029.13 249.8 1027.23 255.6C1023.43 267.8 1014.13 274.6 1001.73 280.5C986.631 287.7 967.231 290.1 944.131 290.1C889.331 290.1 826.731 284.7 769.231 295.8C763.331 296.9 757.531 298.5 751.631 299.8C725.831 305.4 685.331 316.3 635.631 317.1C622.131 317.3 617.531 317.3 592.231 315.8C560.131 313.9 528.731 304.6 498.431 295C491.231 292.7 484.131 290.3 477.131 287.7C454.731 279.5 432.031 270.2 412.431 257.8C370.931 231.6 328.831 206.8 276.031 209.8C245.831 211.6 214.331 222.6 191.031 242.4C172.031 258.5 155.731 277.5 147.831 301.1C140.931 322.1 140.431 345.4 146.231 367.6C149.231 379.1 153.731 389.6 159.431 399.2C176.531 428 204.631 447.4 235.331 462.2C253.131 470.8 274.631 478.5 300.831 484.8C310.131 487 319.831 489.2 330.131 491.1C398.931 504 468.931 505.2 539.131 501.2C569.031 499.5 598.931 497 628.731 494.1C710.231 486 791.031 473.4 872.331 463.4C945.731 454.4 993.531 450.7 1041.93 451.9C1113.03 453.8 1177.83 466.4 1232.93 484.5C1247.63 489.3 1261.53 494.3 1274.53 499.4" stroke="url(#paint12_linear_3860_69008)" stroke-width="1.2597" stroke-miterlimit="10"/>
<path d="M817.732 163C841.432 147 892.632 139.5 938.532 151.4C986.232 163.8 1022.93 200.5 1027.93 236.7C1028.83 243.6 1028.43 250.1 1026.93 255.9C1023.83 268 1015.53 275.6 1004.33 282.3C989.932 290.9 971.532 294.4 949.132 295.4C895.632 297.8 835.032 294.7 778.832 304.7C773.032 305.7 767.332 307.1 761.632 308.3C734.832 313.5 695.432 322.6 648.232 322.7C635.032 322.7 629.332 322.5 605.932 320.9C571.332 318.5 537.832 308.4 505.232 297.5C497.532 294.9 489.932 292.2 482.432 289.3C458.432 280.1 434.132 269.7 413.232 255.9C369.032 226.6 324.032 198.7 267.032 201.6C234.632 203.3 200.432 215 175.832 236.7C156.932 253.4 141.032 273.2 133.632 297.2C127.032 318.5 126.832 342.1 133.132 364.5C136.332 376.1 141.032 386.7 146.932 396.2C164.732 424.9 193.532 444.1 224.732 458.7C242.532 467 264.332 474.5 291.232 480.7C300.632 482.8 310.432 484.9 320.932 486.7C390.632 498.9 461.432 499.4 532.332 494.7C562.532 492.6 592.732 489.8 622.832 486.5C705.232 477.3 786.632 463 868.732 451.5C944.532 440.9 991.932 437.4 1040.13 436.8C1112.73 435.8 1178.33 450 1233.53 467.7C1248.53 472.5 1262.63 477.4 1275.73 482.5" stroke="url(#paint13_linear_3860_69008)" stroke-width="1.1628" stroke-miterlimit="10"/>
<path d="M818.432 166C840.332 152.6 890.832 145.9 936.732 157.3C983.332 168.9 1020.53 202 1026.83 237.6C1028.03 244.2 1027.83 250.6 1026.73 256.4C1024.43 268.5 1017.03 276.9 1007.03 284.3C993.432 294.4 975.832 298.8 954.132 300.8C901.932 305.6 843.332 304.7 788.332 313.6C782.732 314.5 777.132 315.8 771.532 316.7C743.832 321.4 705.532 328.8 660.832 328.2C647.832 328 641.132 327.6 619.732 325.9C582.732 323 546.832 312 512.132 300C503.932 297.2 495.832 294.2 487.732 291C462.132 280.8 436.132 269.3 413.932 254C366.932 221.6 319.032 190.6 258.032 193.4C223.332 195 186.532 207.3 160.632 231C141.732 248.2 126.332 268.9 119.332 293.3C113.132 315 113.232 338.8 119.832 361.4C123.232 373.1 128.232 383.7 134.332 393.2C152.732 421.9 182.232 440.9 214.032 455.2C231.832 463.2 253.832 470.6 281.532 476.6C290.932 478.6 300.932 480.6 311.632 482.3C382.232 493.9 453.932 493.6 525.432 488.1C556.032 485.7 586.532 482.5 616.832 478.8C700.132 468.5 782.132 452.4 865.032 439.5C943.232 427.3 990.232 422.7 1038.13 421.5C1112.13 419.6 1178.73 433.5 1234.03 450.7C1249.33 455.4 1263.63 460.4 1276.83 465.4" stroke="url(#paint14_linear_3860_69008)" stroke-width="1.0658" stroke-miterlimit="10"/>
<path d="M819.032 168.9C839.032 158 888.932 152.3 934.832 163.1C980.232 173.8 1018.03 203.4 1025.63 238.3C1027.03 244.6 1027.13 250.9 1026.43 256.6C1024.93 268.7 1018.53 277.9 1009.53 286.1C996.832 297.7 980.032 303 959.032 306C908.132 313.3 851.532 314.5 797.832 322.4C792.332 323.2 786.832 324.3 781.432 325.1C752.732 329.3 715.532 334.9 673.332 333.7C660.532 333.3 652.832 332.7 633.332 330.9C594.032 327.3 555.832 315.6 518.832 302.4C510.132 299.3 501.532 296 492.932 292.5C465.732 281.4 438.132 268.7 414.632 251.9C364.832 216.4 314.132 182.4 249.032 185C212.132 186.5 172.632 199.5 145.432 225.1C126.532 242.9 111.632 264.4 105.032 289.1C99.1317 311.2 99.5317 335.2 106.532 358C110.232 369.8 115.332 380.4 121.732 390C140.832 418.7 170.932 437.5 203.332 451.5C221.132 459.2 243.332 466.4 271.832 472.3C281.332 474.2 291.532 476.1 302.332 477.7C373.732 488.6 446.332 487.7 518.632 481.4C549.532 478.7 580.332 475.1 611.032 471C695.232 459.6 777.832 441.7 861.532 427.4C942.132 413.6 988.632 407 1036.33 406.1C1111.83 404.6 1179.23 416.8 1234.63 433.6C1250.13 438.3 1264.63 443.2 1277.93 448.1" stroke="url(#paint15_linear_3860_69008)" stroke-width="0.9688" stroke-miterlimit="10"/>
<path d="M819.731 171.9C837.931 163.6 887.131 158.8 933.031 169C977.331 178.9 1015.53 205 1024.53 239.2C1026.13 245.3 1026.63 251.4 1026.23 257.1C1025.53 269.2 1020.13 279.2 1012.23 288.1C1000.53 301.3 984.331 307.5 964.131 311.5C914.531 321.3 859.931 324.6 807.531 331.5C802.131 332.2 796.831 333.1 791.531 333.7C761.831 337.3 725.831 341.2 686.031 339.4C673.531 338.8 664.731 337.9 647.231 336.1C605.531 331.8 565.031 319.4 525.831 305.1C516.631 301.7 507.431 298.1 498.431 294.3C469.631 282.2 440.431 268.4 415.631 250.2C363.131 211.6 309.531 174.5 240.331 177C201.131 178.5 159.031 191.9 130.531 219.6C111.631 237.9 97.3314 260.3 91.0314 285.4C85.4314 307.9 86.1314 332.1 93.6314 355C97.5314 366.9 102.931 377.6 109.531 387.1C129.331 415.8 160.131 434.3 193.031 448.1C210.831 455.6 233.231 462.6 262.631 468.3C272.231 470.2 282.531 471.9 293.531 473.4C365.831 483.6 439.331 482 512.231 474.9C543.431 471.9 574.631 467.9 605.531 463.4C690.631 450.9 773.831 431.2 858.231 415.5C941.231 400.1 987.331 392.5 1034.83 390.9C1111.83 388.3 1180.13 400.3 1235.53 416.7C1251.33 421.4 1266.03 426.2 1279.43 431.1" stroke="url(#paint16_linear_3860_69008)" stroke-width="0.8719" stroke-miterlimit="10"/>
<path d="M820.332 174.8C836.732 169 885.232 165.2 931.132 174.8C974.232 183.8 1012.93 206.4 1023.33 239.9C1025.13 245.7 1025.93 251.7 1025.93 257.4C1025.93 269.5 1021.73 280.3 1014.83 289.9C1004.13 304.6 988.632 311.7 969.132 316.7C920.932 329 868.232 334.4 817.032 340.2C811.832 340.8 806.632 341.5 801.332 342C770.732 345 735.732 347.2 698.532 344.8C686.232 344 676.432 342.9 660.832 341C616.832 335.8 573.932 322.9 532.632 307.4C522.932 303.8 513.232 299.9 503.732 295.8C473.332 282.7 442.432 267.8 416.432 248.1C361.132 206.4 304.632 166.2 231.332 168.6C189.832 170 145.032 184 115.332 213.7C96.4323 232.6 82.6323 255.8 76.7323 281.3C71.4323 304.2 72.4323 328.6 80.3323 351.7C84.4323 363.7 90.0323 374.4 96.9323 384C117.432 412.7 148.832 431 182.332 444.5C200.132 451.7 222.732 458.6 252.932 464.1C262.632 465.9 273.032 467.5 284.232 469C357.432 478.4 431.732 476.2 505.432 468.4C537.032 465 568.432 460.7 599.632 455.7C685.632 442.1 769.432 420.5 854.632 403.5C939.932 386.4 985.732 377.9 1032.93 375.6C1111.33 371.7 1180.63 383.6 1236.13 399.7C1252.23 404.3 1267.03 409.2 1280.63 414" stroke="url(#paint17_linear_3860_69008)" stroke-width="0.7749" stroke-miterlimit="10"/>
<path d="M821.032 177.8C835.632 174.6 883.532 171.7 929.332 180.7C971.232 188.9 1010.43 208 1022.23 240.7C1024.23 246.3 1025.43 252 1025.73 257.7C1026.53 269.8 1023.53 281.4 1017.43 291.7C1007.93 308 992.832 316 974.132 321.9C927.232 336.7 876.532 344.3 826.632 349C821.532 349.5 816.432 350 811.332 350.4C779.732 352.7 745.932 353.3 711.132 350.3C699.032 349.3 688.232 347.9 674.532 346C628.132 339.6 582.932 326.5 539.432 309.9C529.132 306 519.032 301.8 508.932 297.4C477.032 283.3 444.432 267.3 417.032 246.1C358.932 201.2 299.632 158.1 222.232 160.3C178.532 161.6 130.932 176.1 99.9321 208C81.0321 227.4 67.7321 251.5 62.2321 277.4C57.3321 300.7 58.5321 325.3 66.8321 348.6C71.1321 360.7 77.0321 371.4 84.0321 381C105.232 409.6 137.232 427.8 171.332 441C189.132 447.9 211.932 454.7 242.932 460C252.732 461.7 263.232 463.2 274.632 464.6C348.732 473.3 423.932 470.4 498.232 461.8C530.132 458.1 561.932 453.4 593.332 448C680.232 433.2 764.632 409.9 850.632 391.5C938.332 372.7 983.732 363.3 1030.63 360.3C1110.53 355.2 1180.73 367.1 1236.23 382.7C1252.53 387.3 1267.63 392.1 1281.23 396.8" stroke="url(#paint18_linear_3860_69008)" stroke-width="0.6779" stroke-miterlimit="10"/>
<path d="M821.632 180.7C845.732 179.5 992.932 173.6 1021.03 241.4C1027.93 258 1027.63 277.2 1020.03 293.6C1011.73 311.4 997.132 320.3 979.132 327.3C933.632 344.7 884.832 354.3 836.132 357.9C786.832 361.6 737.032 359 688.232 351.1C639.632 343.3 591.932 330.2 546.232 312.5C535.432 308.3 524.732 303.8 514.232 299.1C480.732 284 446.532 266.9 417.832 244.3C357.032 196.3 294.832 150.1 213.332 152.2C167.332 153.4 116.932 168.4 84.8318 202.4C48.9318 240.4 35.3318 296 53.7318 345.6C71.7318 394.2 114.632 420.4 160.832 437.6C184.132 446.3 216.432 455 265.632 460.3C372.832 471.7 482.332 459.5 587.732 440.5C675.532 424.6 760.532 399.4 847.232 379.6C937.232 359.1 982.232 348.8 1029.03 345.2C1134.63 336.9 1222.93 359.5 1282.63 379.9" stroke="url(#paint19_linear_3860_69008)" stroke-width="0.581" stroke-miterlimit="10"/>
<path d="M395.032 162.7C380.532 162.7 368.832 161.8 368.832 160.8C368.832 159.7 380.532 158.9 395.032 158.9C409.532 158.9 421.232 159.8 421.232 160.8C421.332 161.8 409.532 162.7 395.032 162.7Z" fill="url(#paint20_radial_3860_69008)"/>
<path d="M396.932 160.8C396.932 175.3 396.032 187 395.032 187C393.932 187 393.132 175.3 393.132 160.8C393.132 146.3 394.032 134.6 395.032 134.6C396.032 134.5 396.932 146.3 396.932 160.8Z" fill="url(#paint21_radial_3860_69008)"/>
<path d="M395.632 161.3C391.132 165.8 387.132 169.2 386.832 168.9C386.532 168.6 389.932 164.6 394.432 160.1C398.932 155.6 402.932 152.2 403.232 152.5C403.632 152.9 400.232 156.8 395.632 161.3Z" fill="url(#paint22_radial_3860_69008)"/>
<path d="M394.432 161.3C389.932 156.8 386.532 152.8 386.832 152.5C387.132 152.2 391.132 155.6 395.632 160.1C400.132 164.6 403.532 168.6 403.232 168.9C402.932 169.3 399.032 165.9 394.432 161.3Z" fill="url(#paint23_radial_3860_69008)"/>
<path d="M400.332 160.8C400.332 163.7 397.932 166.1 395.032 166.1C392.132 166.1 389.732 163.7 389.732 160.8C389.732 157.9 392.132 155.5 395.032 155.5C398.032 155.5 400.332 157.8 400.332 160.8Z" fill="url(#paint24_radial_3860_69008)"/>
<path d="M228.332 536C228.332 550.5 227.432 562.2 226.432 562.2C225.332 562.2 224.532 550.5 224.532 536C224.532 521.5 225.432 509.8 226.432 509.8C227.432 509.7 228.332 521.5 228.332 536Z" fill="url(#paint25_radial_3860_69008)"/>
<path d="M226.332 537.9C211.832 537.9 200.132 537 200.132 536C200.132 534.9 211.832 534.1 226.332 534.1C240.832 534.1 252.532 535 252.532 536C252.632 537 240.832 537.9 226.332 537.9Z" fill="url(#paint26_radial_3860_69008)"/>
<path d="M226.932 536.6C222.432 541.1 218.432 544.5 218.132 544.2C217.832 543.9 221.232 539.9 225.732 535.4C230.232 530.9 234.232 527.5 234.532 527.8C234.932 528.1 231.532 532.1 226.932 536.6Z" fill="url(#paint27_radial_3860_69008)"/>
<path d="M225.732 536.6C221.232 532.1 217.832 528.1 218.132 527.8C218.432 527.5 222.432 530.9 226.932 535.4C231.432 539.9 234.832 543.9 234.532 544.2C234.232 544.5 230.332 541.1 225.732 536.6Z" fill="url(#paint28_radial_3860_69008)"/>
<path d="M231.632 536C231.632 538.9 229.232 541.3 226.332 541.3C223.432 541.3 221.032 538.9 221.032 536C221.032 533.1 223.432 530.7 226.332 530.7C229.332 530.7 231.632 533.1 231.632 536Z" fill="url(#paint29_radial_3860_69008)"/>
<path d="M664.332 388.5C664.332 412.6 662.932 432.2 661.132 432.2C659.332 432.2 657.932 412.6 657.932 388.5C657.932 364.4 659.332 344.8 661.132 344.8C662.932 344.8 664.332 364.3 664.332 388.5Z" fill="url(#paint30_radial_3860_69008)"/>
<path d="M661.132 391.7C637.032 391.7 617.432 390.3 617.432 388.5C617.432 386.7 637.032 385.3 661.132 385.3C685.232 385.3 704.832 386.7 704.832 388.5C704.832 390.2 685.232 391.7 661.132 391.7Z" fill="url(#paint31_radial_3860_69008)"/>
<path d="M662.132 389.5C654.632 397 648.032 402.7 647.532 402.1C646.932 401.5 652.632 395 660.132 387.5C667.632 380 674.232 374.3 674.732 374.9C675.332 375.4 669.632 381.9 662.132 389.5Z" fill="url(#paint32_radial_3860_69008)"/>
<path d="M660.132 389.5C652.632 382 646.932 375.4 647.532 374.9C648.132 374.3 654.632 380 662.132 387.5C669.632 395 675.332 401.6 674.732 402.1C674.232 402.7 667.632 397 660.132 389.5Z" fill="url(#paint33_radial_3860_69008)"/>
<path d="M669.932 388.5C669.932 393.4 666.032 397.3 661.132 397.3C656.232 397.3 652.332 393.4 652.332 388.5C652.332 383.6 656.232 379.7 661.132 379.7C666.032 379.7 669.932 383.7 669.932 388.5Z" fill="url(#paint34_radial_3860_69008)"/>
<path d="M46.1316 328.7C39.4316 328.7 33.9316 323.2 33.9316 316.5C33.9316 309.8 39.4316 304.3 46.1316 304.3C52.8316 304.3 58.3316 309.8 58.3316 316.5C58.3316 323.2 52.8316 328.7 46.1316 328.7Z" fill="url(#paint35_radial_3860_69008)"/>
<path d="M46.1316 327.2C52.0411 327.2 56.8316 322.41 56.8316 316.5C56.8316 310.591 52.0411 305.8 46.1316 305.8C40.2222 305.8 35.4316 310.591 35.4316 316.5C35.4316 322.41 40.2222 327.2 46.1316 327.2Z" fill="url(#paint36_linear_3860_69008)"/>
<path d="M46.1316 328.7C39.4316 328.7 33.9316 323.2 33.9316 316.5C33.9316 309.8 39.4316 304.3 46.1316 304.3C52.8316 304.3 58.3316 309.8 58.3316 316.5C58.3316 323.2 52.8316 328.7 46.1316 328.7Z" fill="url(#paint37_radial_3860_69008)"/>
<path d="M46.1316 327.2C52.0411 327.2 56.8316 322.41 56.8316 316.5C56.8316 310.591 52.0411 305.8 46.1316 305.8C40.2222 305.8 35.4316 310.591 35.4316 316.5C35.4316 322.41 40.2222 327.2 46.1316 327.2Z" fill="url(#paint38_linear_3860_69008)"/>
<path d="M46.1316 328.7C39.4316 328.7 33.9316 323.2 33.9316 316.5C33.9316 309.8 39.4316 304.3 46.1316 304.3C52.8316 304.3 58.3316 309.8 58.3316 316.5C58.3316 323.2 52.8316 328.7 46.1316 328.7Z" fill="url(#paint39_radial_3860_69008)"/>
<path d="M46.1316 327.2C52.0411 327.2 56.8316 322.41 56.8316 316.5C56.8316 310.591 52.0411 305.8 46.1316 305.8C40.2222 305.8 35.4316 310.591 35.4316 316.5C35.4316 322.41 40.2222 327.2 46.1316 327.2Z" fill="url(#paint40_linear_3860_69008)"/>
<path d="M46.1316 328.7C39.4316 328.7 33.9316 323.2 33.9316 316.5C33.9316 309.8 39.4316 304.3 46.1316 304.3C52.8316 304.3 58.3316 309.8 58.3316 316.5C58.3316 323.2 52.8316 328.7 46.1316 328.7Z" fill="url(#paint41_radial_3860_69008)"/>
<path d="M46.1316 327.2C52.0411 327.2 56.8316 322.41 56.8316 316.5C56.8316 310.591 52.0411 305.8 46.1316 305.8C40.2222 305.8 35.4316 310.591 35.4316 316.5C35.4316 322.41 40.2222 327.2 46.1316 327.2Z" fill="url(#paint42_linear_3860_69008)"/>
<path d="M46.1318 322.6C49.4455 322.6 52.1318 319.869 52.1318 316.5C52.1318 313.131 49.4455 310.4 46.1318 310.4C42.8181 310.4 40.1318 313.131 40.1318 316.5C40.1318 319.869 42.8181 322.6 46.1318 322.6Z" fill="white"/>
<path d="M983.631 239.1C980.231 239.1 977.531 236.3 977.531 233C977.531 229.7 980.231 226.9 983.631 226.9C987.031 226.9 989.731 229.7 989.731 233C989.731 236.3 986.931 239.1 983.631 239.1Z" fill="url(#paint43_radial_3860_69008)"/>
<path d="M983.631 237.6C986.172 237.6 988.231 235.54 988.231 233C988.231 230.459 986.172 228.4 983.631 228.4C981.091 228.4 979.031 230.459 979.031 233C979.031 235.54 981.091 237.6 983.631 237.6Z" fill="url(#paint44_linear_3860_69008)"/>
<path d="M983.631 239.1C980.231 239.1 977.531 236.3 977.531 233C977.531 229.7 980.231 226.9 983.631 226.9C987.031 226.9 989.731 229.7 989.731 233C989.731 236.3 986.931 239.1 983.631 239.1Z" fill="url(#paint45_radial_3860_69008)"/>
<path d="M983.631 237.6C986.172 237.6 988.231 235.54 988.231 233C988.231 230.459 986.172 228.4 983.631 228.4C981.091 228.4 979.031 230.459 979.031 233C979.031 235.54 981.091 237.6 983.631 237.6Z" fill="url(#paint46_linear_3860_69008)"/>
<path d="M983.631 239.1C980.231 239.1 977.531 236.3 977.531 233C977.531 229.7 980.231 226.9 983.631 226.9C987.031 226.9 989.731 229.7 989.731 233C989.731 236.3 986.931 239.1 983.631 239.1Z" fill="url(#paint47_radial_3860_69008)"/>
<path d="M983.631 237.6C986.172 237.6 988.231 235.54 988.231 233C988.231 230.459 986.172 228.4 983.631 228.4C981.091 228.4 979.031 230.459 979.031 233C979.031 235.54 981.091 237.6 983.631 237.6Z" fill="url(#paint48_linear_3860_69008)"/>
<path d="M983.631 239.1C980.231 239.1 977.531 236.3 977.531 233C977.531 229.7 980.231 226.9 983.631 226.9C987.031 226.9 989.731 229.7 989.731 233C989.731 236.3 986.931 239.1 983.631 239.1Z" fill="url(#paint49_radial_3860_69008)"/>
<path d="M983.631 237.6C986.172 237.6 988.231 235.54 988.231 233C988.231 230.459 986.172 228.4 983.631 228.4C981.091 228.4 979.031 230.459 979.031 233C979.031 235.54 981.091 237.6 983.631 237.6Z" fill="url(#paint50_linear_3860_69008)"/>
<path d="M983.631 235.6C985.067 235.6 986.231 234.436 986.231 233C986.231 231.564 985.067 230.4 983.631 230.4C982.195 230.4 981.031 231.564 981.031 233C981.031 234.436 982.195 235.6 983.631 235.6Z" fill="white"/>
<path d="M590.831 226.7C588.431 226.7 586.531 224.8 586.531 222.4C586.531 220 588.431 218.1 590.831 218.1C593.231 218.1 595.131 220 595.131 222.4C595.131 224.8 593.231 226.7 590.831 226.7Z" fill="url(#paint51_radial_3860_69008)"/>
<path d="M590.831 225.2C592.378 225.2 593.631 223.946 593.631 222.4C593.631 220.854 592.378 219.6 590.831 219.6C589.285 219.6 588.031 220.854 588.031 222.4C588.031 223.946 589.285 225.2 590.831 225.2Z" fill="url(#paint52_linear_3860_69008)"/>
<path d="M590.831 226.7C588.431 226.7 586.531 224.8 586.531 222.4C586.531 220 588.431 218.1 590.831 218.1C593.231 218.1 595.131 220 595.131 222.4C595.131 224.8 593.231 226.7 590.831 226.7Z" fill="url(#paint53_radial_3860_69008)"/>
<path d="M590.831 225.2C592.378 225.2 593.631 223.946 593.631 222.4C593.631 220.854 592.378 219.6 590.831 219.6C589.285 219.6 588.031 220.854 588.031 222.4C588.031 223.946 589.285 225.2 590.831 225.2Z" fill="url(#paint54_linear_3860_69008)"/>
<path d="M590.831 226.7C588.431 226.7 586.531 224.8 586.531 222.4C586.531 220 588.431 218.1 590.831 218.1C593.231 218.1 595.131 220 595.131 222.4C595.131 224.8 593.231 226.7 590.831 226.7Z" fill="url(#paint55_radial_3860_69008)"/>
<path d="M590.831 225.2C592.378 225.2 593.631 223.946 593.631 222.4C593.631 220.854 592.378 219.6 590.831 219.6C589.285 219.6 588.031 220.854 588.031 222.4C588.031 223.946 589.285 225.2 590.831 225.2Z" fill="url(#paint56_linear_3860_69008)"/>
<path d="M590.831 226.7C588.431 226.7 586.531 224.8 586.531 222.4C586.531 220 588.431 218.1 590.831 218.1C593.231 218.1 595.131 220 595.131 222.4C595.131 224.8 593.231 226.7 590.831 226.7Z" fill="url(#paint57_radial_3860_69008)"/>
<path d="M590.831 225.2C592.378 225.2 593.631 223.946 593.631 222.4C593.631 220.854 592.378 219.6 590.831 219.6C589.285 219.6 588.031 220.854 588.031 222.4C588.031 223.946 589.285 225.2 590.831 225.2Z" fill="url(#paint58_linear_3860_69008)"/>
<path d="M590.831 224C591.715 224 592.431 223.284 592.431 222.4C592.431 221.517 591.715 220.8 590.831 220.8C589.948 220.8 589.231 221.517 589.231 222.4C589.231 223.284 589.948 224 590.831 224Z" fill="white"/>
<path d="M197.331 470C194.931 470 193.031 468.1 193.031 465.7C193.031 463.3 194.931 461.4 197.331 461.4C199.731 461.4 201.631 463.3 201.631 465.7C201.631 468.1 199.731 470 197.331 470Z" fill="url(#paint59_radial_3860_69008)"/>
<path d="M197.331 468.5C198.878 468.5 200.131 467.246 200.131 465.7C200.131 464.154 198.878 462.9 197.331 462.9C195.785 462.9 194.531 464.154 194.531 465.7C194.531 467.246 195.785 468.5 197.331 468.5Z" fill="url(#paint60_linear_3860_69008)"/>
<path d="M197.331 470C194.931 470 193.031 468.1 193.031 465.7C193.031 463.3 194.931 461.4 197.331 461.4C199.731 461.4 201.631 463.3 201.631 465.7C201.631 468.1 199.731 470 197.331 470Z" fill="url(#paint61_radial_3860_69008)"/>
<path d="M197.331 468.5C198.878 468.5 200.131 467.246 200.131 465.7C200.131 464.154 198.878 462.9 197.331 462.9C195.785 462.9 194.531 464.154 194.531 465.7C194.531 467.246 195.785 468.5 197.331 468.5Z" fill="url(#paint62_linear_3860_69008)"/>
<path d="M197.331 470C194.931 470 193.031 468.1 193.031 465.7C193.031 463.3 194.931 461.4 197.331 461.4C199.731 461.4 201.631 463.3 201.631 465.7C201.631 468.1 199.731 470 197.331 470Z" fill="url(#paint63_radial_3860_69008)"/>
<path d="M197.331 468.5C198.878 468.5 200.131 467.246 200.131 465.7C200.131 464.154 198.878 462.9 197.331 462.9C195.785 462.9 194.531 464.154 194.531 465.7C194.531 467.246 195.785 468.5 197.331 468.5Z" fill="url(#paint64_linear_3860_69008)"/>
<path d="M197.331 470C194.931 470 193.031 468.1 193.031 465.7C193.031 463.3 194.931 461.4 197.331 461.4C199.731 461.4 201.631 463.3 201.631 465.7C201.631 468.1 199.731 470 197.331 470Z" fill="url(#paint65_radial_3860_69008)"/>
<path d="M197.331 468.5C198.878 468.5 200.131 467.246 200.131 465.7C200.131 464.154 198.878 462.9 197.331 462.9C195.785 462.9 194.531 464.154 194.531 465.7C194.531 467.246 195.785 468.5 197.331 468.5Z" fill="url(#paint66_linear_3860_69008)"/>
<path d="M197.331 467.3C198.215 467.3 198.931 466.584 198.931 465.7C198.931 464.816 198.215 464.1 197.331 464.1C196.448 464.1 195.731 464.816 195.731 465.7C195.731 466.584 196.448 467.3 197.331 467.3Z" fill="white"/>
<path d="M750.132 292.2C813.81 292.2 865.432 240.579 865.432 176.9C865.432 113.222 813.81 61.6001 750.132 61.6001C686.454 61.6001 634.832 113.222 634.832 176.9C634.832 240.579 686.454 292.2 750.132 292.2Z" fill="url(#paint67_radial_3860_69008)"/>
<path d="M751.032 277.2C806.813 277.2 852.032 231.981 852.032 176.2C852.032 120.419 806.813 75.2002 751.032 75.2002C695.251 75.2002 650.032 120.419 650.032 176.2C650.032 231.981 695.251 277.2 751.032 277.2Z" fill="url(#paint68_linear_3860_69008)"/>
<path d="M751.032 277.2C806.813 277.2 852.032 231.981 852.032 176.2C852.032 120.419 806.813 75.2002 751.032 75.2002C695.251 75.2002 650.032 120.419 650.032 176.2C650.032 231.981 695.251 277.2 751.032 277.2Z" fill="url(#paint69_radial_3860_69008)"/>
<path d="M1159.63 331.5C1157.23 331.5 1155.33 329.6 1155.33 327.2C1155.33 324.8 1157.23 322.9 1159.63 322.9C1162.03 322.9 1163.93 324.8 1163.93 327.2C1163.93 329.6 1162.03 331.5 1159.63 331.5Z" fill="url(#paint70_radial_3860_69008)"/>
<path d="M1159.63 330C1161.18 330 1162.43 328.746 1162.43 327.2C1162.43 325.654 1161.18 324.4 1159.63 324.4C1158.09 324.4 1156.83 325.654 1156.83 327.2C1156.83 328.746 1158.09 330 1159.63 330Z" fill="url(#paint71_linear_3860_69008)"/>
<path d="M1159.63 331.5C1157.23 331.5 1155.33 329.6 1155.33 327.2C1155.33 324.8 1157.23 322.9 1159.63 322.9C1162.03 322.9 1163.93 324.8 1163.93 327.2C1163.93 329.6 1162.03 331.5 1159.63 331.5Z" fill="url(#paint72_radial_3860_69008)"/>
<path d="M1159.63 330C1161.18 330 1162.43 328.746 1162.43 327.2C1162.43 325.654 1161.18 324.4 1159.63 324.4C1158.09 324.4 1156.83 325.654 1156.83 327.2C1156.83 328.746 1158.09 330 1159.63 330Z" fill="url(#paint73_linear_3860_69008)"/>
<path d="M1159.63 331.5C1157.23 331.5 1155.33 329.6 1155.33 327.2C1155.33 324.8 1157.23 322.9 1159.63 322.9C1162.03 322.9 1163.93 324.8 1163.93 327.2C1163.93 329.6 1162.03 331.5 1159.63 331.5Z" fill="url(#paint74_radial_3860_69008)"/>
<path d="M1159.63 330C1161.18 330 1162.43 328.746 1162.43 327.2C1162.43 325.654 1161.18 324.4 1159.63 324.4C1158.09 324.4 1156.83 325.654 1156.83 327.2C1156.83 328.746 1158.09 330 1159.63 330Z" fill="url(#paint75_linear_3860_69008)"/>
<path d="M1159.63 331.5C1157.23 331.5 1155.33 329.6 1155.33 327.2C1155.33 324.8 1157.23 322.9 1159.63 322.9C1162.03 322.9 1163.93 324.8 1163.93 327.2C1163.93 329.6 1162.03 331.5 1159.63 331.5Z" fill="url(#paint76_radial_3860_69008)"/>
<path d="M1159.63 330C1161.18 330 1162.43 328.746 1162.43 327.2C1162.43 325.654 1161.18 324.4 1159.63 324.4C1158.09 324.4 1156.83 325.654 1156.83 327.2C1156.83 328.746 1158.09 330 1159.63 330Z" fill="url(#paint77_linear_3860_69008)"/>
<path d="M1159.63 328.8C1160.52 328.8 1161.23 328.084 1161.23 327.2C1161.23 326.316 1160.52 325.6 1159.63 325.6C1158.75 325.6 1158.03 326.316 1158.03 327.2C1158.03 328.084 1158.75 328.8 1159.63 328.8Z" fill="white"/>
<path d="M746.432 570.4C743.032 570.4 740.332 567.6 740.332 564.3C740.332 561 743.032 558.2 746.432 558.2C749.832 558.2 752.532 561 752.532 564.3C752.532 567.6 749.832 570.4 746.432 570.4Z" fill="url(#paint78_radial_3860_69008)"/>
<path d="M746.432 568.9C748.973 568.9 751.032 566.841 751.032 564.3C751.032 561.76 748.973 559.7 746.432 559.7C743.892 559.7 741.832 561.76 741.832 564.3C741.832 566.841 743.892 568.9 746.432 568.9Z" fill="url(#paint79_linear_3860_69008)"/>
<path d="M746.432 570.4C743.032 570.4 740.332 567.6 740.332 564.3C740.332 561 743.032 558.2 746.432 558.2C749.832 558.2 752.532 561 752.532 564.3C752.532 567.6 749.832 570.4 746.432 570.4Z" fill="url(#paint80_radial_3860_69008)"/>
<path d="M746.432 568.9C748.973 568.9 751.032 566.841 751.032 564.3C751.032 561.76 748.973 559.7 746.432 559.7C743.892 559.7 741.832 561.76 741.832 564.3C741.832 566.841 743.892 568.9 746.432 568.9Z" fill="url(#paint81_linear_3860_69008)"/>
<path d="M746.432 570.4C743.032 570.4 740.332 567.6 740.332 564.3C740.332 561 743.032 558.2 746.432 558.2C749.832 558.2 752.532 561 752.532 564.3C752.532 567.6 749.832 570.4 746.432 570.4Z" fill="url(#paint82_radial_3860_69008)"/>
<path d="M746.432 568.9C748.973 568.9 751.032 566.841 751.032 564.3C751.032 561.76 748.973 559.7 746.432 559.7C743.892 559.7 741.832 561.76 741.832 564.3C741.832 566.841 743.892 568.9 746.432 568.9Z" fill="url(#paint83_linear_3860_69008)"/>
<path d="M746.432 570.4C743.032 570.4 740.332 567.6 740.332 564.3C740.332 561 743.032 558.2 746.432 558.2C749.832 558.2 752.532 561 752.532 564.3C752.532 567.6 749.832 570.4 746.432 570.4Z" fill="url(#paint84_radial_3860_69008)"/>
<path d="M746.432 568.9C748.973 568.9 751.032 566.841 751.032 564.3C751.032 561.76 748.973 559.7 746.432 559.7C743.892 559.7 741.832 561.76 741.832 564.3C741.832 566.841 743.892 568.9 746.432 568.9Z" fill="url(#paint85_linear_3860_69008)"/>
<path d="M746.432 566.9C747.868 566.9 749.032 565.736 749.032 564.3C749.032 562.864 747.868 561.7 746.432 561.7C744.996 561.7 743.832 562.864 743.832 564.3C743.832 565.736 744.996 566.9 746.432 566.9Z" fill="white"/>
</g>
<defs>
<radialGradient id="paint0_radial_3860_69008" cx="0" cy="0" r="1" gradientUnits="userSpaceOnUse" gradientTransform="translate(460.632 383.3) scale(150.8 150.8)">
<stop offset="0.8226" stop-color="#0A8C86"/>
<stop offset="1" stop-color="#0A8C86" stop-opacity="0"/>
</radialGradient>
<linearGradient id="paint1_linear_3860_69008" x1="460.032" y1="252" x2="460.032" y2="513.6" gradientUnits="userSpaceOnUse">
<stop stop-color="#069186"/>
<stop offset="1" stop-color="#296D85"/>
</linearGradient>
<radialGradient id="paint2_radial_3860_69008" cx="0" cy="0" r="1" gradientUnits="userSpaceOnUse" gradientTransform="translate(326.304 267.356) rotate(90) scale(430.87)">
<stop offset="0.136" stop-color="#108686" stop-opacity="0"/>
<stop offset="0.2131" stop-color="#107F80" stop-opacity="0.0775379"/>
<stop offset="0.3269" stop-color="#106B70" stop-opacity="0.192"/>
<stop offset="0.4628" stop-color="#0F4A57" stop-opacity="0.3286"/>
<stop offset="0.494" stop-color="#0F4250" stop-opacity="0.36"/>
<stop offset="0.5728" stop-color="#0E2B3E" stop-opacity="0.749"/>
<stop offset="0.6236" stop-color="#0E1930"/>
</radialGradient>
<linearGradient id="paint3_linear_3860_69008" x1="263.603" y1="369.741" x2="1264.59" y2="369.741" gradientUnits="userSpaceOnUse">
<stop stop-color="#2671C1"/>
<stop offset="1" stop-color="#098D86"/>
</linearGradient>
<linearGradient id="paint4_linear_3860_69008" x1="250.348" y1="364.292" x2="1265.86" y2="364.292" gradientUnits="userSpaceOnUse">
<stop stop-color="#2473BD"/>
<stop offset="1" stop-color="#0B8B8A"/>
</linearGradient>
<linearGradient id="paint5_linear_3860_69008" x1="236.718" y1="358.53" x2="1266.93" y2="358.53" gradientUnits="userSpaceOnUse">
<stop stop-color="#2274BA"/>
<stop offset="1" stop-color="#0D8A8D"/>
</linearGradient>
<linearGradient id="paint6_linear_3860_69008" x1="223.075" y1="352.885" x2="1267.71" y2="352.885" gradientUnits="userSpaceOnUse">
<stop stop-color="#2176B6"/>
<stop offset="1" stop-color="#0E8891"/>
</linearGradient>
<linearGradient id="paint7_linear_3860_69008" x1="209.916" y1="347.459" x2="1269.38" y2="347.459" gradientUnits="userSpaceOnUse">
<stop stop-color="#1F78B2"/>
<stop offset="1" stop-color="#108695"/>
</linearGradient>
<linearGradient id="paint8_linear_3860_69008" x1="196.237" y1="341.793" x2="1270.45" y2="341.793" gradientUnits="userSpaceOnUse">
<stop stop-color="#1D7AAF"/>
<stop offset="1" stop-color="#128498"/>
</linearGradient>
<linearGradient id="paint9_linear_3860_69008" x1="182.583" y1="336.18" x2="1271.43" y2="336.18" gradientUnits="userSpaceOnUse">
<stop stop-color="#1B7CAB"/>
<stop offset="1" stop-color="#14839C"/>
</linearGradient>
<linearGradient id="paint10_linear_3860_69008" x1="168.952" y1="330.647" x2="1272.61" y2="330.647" gradientUnits="userSpaceOnUse">
<stop stop-color="#197DA7"/>
<stop offset="1" stop-color="#1681A0"/>
</linearGradient>
<linearGradient id="paint11_linear_3860_69008" x1="155.342" y1="325.088" x2="1273.79" y2="325.088" gradientUnits="userSpaceOnUse">
<stop stop-color="#187FA3"/>
<stop offset="1" stop-color="#187FA3"/>
</linearGradient>
<linearGradient id="paint12_linear_3860_69008" x1="141.606" y1="321.449" x2="1274.76" y2="321.449" gradientUnits="userSpaceOnUse">
<stop stop-color="#1681A0"/>
<stop offset="1" stop-color="#197DA7"/>
</linearGradient>
<linearGradient id="paint13_linear_3860_69008" x1="127.96" y1="321.507" x2="1275.94" y2="321.507" gradientUnits="userSpaceOnUse">
<stop stop-color="#14839C"/>
<stop offset="1" stop-color="#1B7CAB"/>
</linearGradient>
<linearGradient id="paint14_linear_3860_69008" x1="114.246" y1="321.637" x2="1277.02" y2="321.637" gradientUnits="userSpaceOnUse">
<stop stop-color="#128498"/>
<stop offset="1" stop-color="#1D7AAF"/>
</linearGradient>
<linearGradient id="paint15_linear_3860_69008" x1="100.434" y1="321.68" x2="1278.1" y2="321.68" gradientUnits="userSpaceOnUse">
<stop stop-color="#108695"/>
<stop offset="1" stop-color="#1F78B2"/>
</linearGradient>
<linearGradient id="paint16_linear_3860_69008" x1="86.9049" y1="321.931" x2="1279.58" y2="321.931" gradientUnits="userSpaceOnUse">
<stop stop-color="#0E8891"/>
<stop offset="1" stop-color="#2176B6"/>
</linearGradient>
<linearGradient id="paint17_linear_3860_69008" x1="73.0441" y1="321.845" x2="1280.76" y2="321.845" gradientUnits="userSpaceOnUse">
<stop stop-color="#0D8A8D"/>
<stop offset="1" stop-color="#2274BA"/>
</linearGradient>
<linearGradient id="paint18_linear_3860_69008" x1="59.0029" y1="315.04" x2="1281.34" y2="315.04" gradientUnits="userSpaceOnUse">
<stop stop-color="#0B8B8A"/>
<stop offset="1" stop-color="#2473BD"/>
</linearGradient>
<linearGradient id="paint19_linear_3860_69008" x1="45.2592" y1="308.418" x2="1282.73" y2="308.418" gradientUnits="userSpaceOnUse">
<stop stop-color="#098D86"/>
<stop offset="1" stop-color="#2671C1"/>
</linearGradient>
<radialGradient id="paint20_radial_3860_69008" cx="0" cy="0" r="1" gradientUnits="userSpaceOnUse" gradientTransform="translate(395.032 160.743) rotate(90) scale(1.9333 26.2677)">
<stop stop-color="white"/>
<stop offset="0.1346" stop-color="#F7FFFD"/>
<stop offset="0.3057" stop-color="#E6FFFA"/>
<stop offset="0.5218" stop-color="#EFFFFC" stop-opacity="0.6888"/>
<stop offset="1" stop-color="white" stop-opacity="0"/>
</radialGradient>
<radialGradient id="paint21_radial_3860_69008" cx="0" cy="0" r="1" gradientUnits="userSpaceOnUse" gradientTransform="translate(394.975 160.8) scale(1.9333 26.2677)">
<stop stop-color="white"/>
<stop offset="0.1346" stop-color="#F7FFFD"/>
<stop offset="0.3057" stop-color="#E6FFFA"/>
<stop offset="0.5218" stop-color="#EFFFFC" stop-opacity="0.6888"/>
<stop offset="1" stop-color="white" stop-opacity="0"/>
</radialGradient>
<radialGradient id="paint22_radial_3860_69008" cx="0" cy="0" r="1" gradientUnits="userSpaceOnUse" gradientTransform="translate(395.072 160.74) rotate(44.9999) scale(0.853191 11.5795)">
<stop stop-color="white"/>
<stop offset="0.1346" stop-color="#F7FFFD"/>
<stop offset="0.3057" stop-color="#E6FFFA"/>
<stop offset="0.5218" stop-color="#EFFFFC" stop-opacity="0.6888"/>
<stop offset="1" stop-color="white" stop-opacity="0"/>
</radialGradient>
<radialGradient id="paint23_radial_3860_69008" cx="0" cy="0" r="1" gradientUnits="userSpaceOnUse" gradientTransform="translate(395.069 160.745) rotate(135) scale(0.853317 11.5812)">
<stop stop-color="white"/>
<stop offset="0.1346" stop-color="#F7FFFD"/>
<stop offset="0.3057" stop-color="#E6FFFA"/>
<stop offset="0.5218" stop-color="#EFFFFC" stop-opacity="0.6888"/>
<stop offset="1" stop-color="white" stop-opacity="0"/>
</radialGradient>
<radialGradient id="paint24_radial_3860_69008" cx="0" cy="0" r="1" gradientUnits="userSpaceOnUse" gradientTransform="translate(395.07 160.771) scale(5.29259 5.2926)">
<stop stop-color="white"/>
<stop offset="0.1346" stop-color="#F7FFFD"/>
<stop offset="0.3057" stop-color="#E6FFFA"/>
<stop offset="0.5218" stop-color="#EFFFFC" stop-opacity="0.6888"/>
<stop offset="1" stop-color="white" stop-opacity="0"/>
</radialGradient>
<radialGradient id="paint25_radial_3860_69008" cx="0" cy="0" r="1" gradientUnits="userSpaceOnUse" gradientTransform="translate(226.368 536) scale(1.93288 26.2619)">
<stop stop-color="white"/>
<stop offset="0.1346" stop-color="#F7FFFD"/>
<stop offset="0.3057" stop-color="#E6FFFA"/>
<stop offset="0.5218" stop-color="#EFFFFC" stop-opacity="0.6888"/>
<stop offset="1" stop-color="white" stop-opacity="0"/>
</radialGradient>
<radialGradient id="paint26_radial_3860_69008" cx="0" cy="0" r="1" gradientUnits="userSpaceOnUse" gradientTransform="translate(226.332 535.979) rotate(90) scale(1.93329 26.2672)">
<stop stop-color="white"/>
<stop offset="0.1346" stop-color="#F7FFFD"/>
<stop offset="0.3057" stop-color="#E6FFFA"/>
<stop offset="0.5218" stop-color="#EFFFFC" stop-opacity="0.6888"/>
<stop offset="1" stop-color="white" stop-opacity="0"/>
</radialGradient>
<radialGradient id="paint27_radial_3860_69008" cx="0" cy="0" r="1" gradientUnits="userSpaceOnUse" gradientTransform="translate(226.368 535.978) rotate(45.0001) scale(0.853317 11.5812)">
<stop stop-color="white"/>
<stop offset="0.1346" stop-color="#F7FFFD"/>
<stop offset="0.3057" stop-color="#E6FFFA"/>
<stop offset="0.5218" stop-color="#EFFFFC" stop-opacity="0.6888"/>
<stop offset="1" stop-color="white" stop-opacity="0"/>
</radialGradient>
<radialGradient id="paint28_radial_3860_69008" cx="0" cy="0" r="1" gradientUnits="userSpaceOnUse" gradientTransform="translate(226.359 535.973) rotate(135) scale(0.853722 11.5867)">
<stop stop-color="white"/>
<stop offset="0.1346" stop-color="#F7FFFD"/>
<stop offset="0.3057" stop-color="#E6FFFA"/>
<stop offset="0.5218" stop-color="#EFFFFC" stop-opacity="0.6888"/>
<stop offset="1" stop-color="white" stop-opacity="0"/>
</radialGradient>
<radialGradient id="paint29_radial_3860_69008" cx="0" cy="0" r="1" gradientUnits="userSpaceOnUse" gradientTransform="translate(226.369 536) scale(5.2887 5.28869)">
<stop stop-color="white"/>
<stop offset="0.1346" stop-color="#F7FFFD"/>
<stop offset="0.3057" stop-color="#E6FFFA"/>
<stop offset="0.5218" stop-color="#EFFFFC" stop-opacity="0.6888"/>
<stop offset="1" stop-color="white" stop-opacity="0"/>
</radialGradient>
<radialGradient id="paint30_radial_3860_69008" cx="0" cy="0" r="1" gradientUnits="userSpaceOnUse" gradientTransform="translate(661.131 388.5) scale(3.21555 43.6898)">
<stop stop-color="white"/>
<stop offset="0.1346" stop-color="#F7FFFD"/>
<stop offset="0.3057" stop-color="#E6FFFA"/>
<stop offset="0.5218" stop-color="#EFFFFC" stop-opacity="0.6888"/>
<stop offset="1" stop-color="white" stop-opacity="0"/>
</radialGradient>
<radialGradient id="paint31_radial_3860_69008" cx="0" cy="0" r="1" gradientUnits="userSpaceOnUse" gradientTransform="translate(661.132 388.472) rotate(90) scale(3.21527 43.6855)">
<stop stop-color="white"/>
<stop offset="0.1346" stop-color="#F7FFFD"/>
<stop offset="0.3057" stop-color="#E6FFFA"/>
<stop offset="0.5218" stop-color="#EFFFFC" stop-opacity="0.6888"/>
<stop offset="1" stop-color="white" stop-opacity="0"/>
</radialGradient>
<radialGradient id="paint32_radial_3860_69008" cx="0" cy="0" r="1" gradientUnits="userSpaceOnUse" gradientTransform="translate(661.116 388.484) rotate(45) scale(1.42087 19.284)">
<stop stop-color="white"/>
<stop offset="0.1346" stop-color="#F7FFFD"/>
<stop offset="0.3057" stop-color="#E6FFFA"/>
<stop offset="0.5218" stop-color="#EFFFFC" stop-opacity="0.6888"/>
<stop offset="1" stop-color="white" stop-opacity="0"/>
</radialGradient>
<radialGradient id="paint33_radial_3860_69008" cx="0" cy="0" r="1" gradientUnits="userSpaceOnUse" gradientTransform="translate(661.143 388.489) rotate(135) scale(1.41944 19.2646)">
<stop stop-color="white"/>
<stop offset="0.1346" stop-color="#F7FFFD"/>
<stop offset="0.3057" stop-color="#E6FFFA"/>
<stop offset="0.5218" stop-color="#EFFFFC" stop-opacity="0.6888"/>
<stop offset="1" stop-color="white" stop-opacity="0"/>
</radialGradient>
<radialGradient id="paint34_radial_3860_69008" cx="0" cy="0" r="1" gradientUnits="userSpaceOnUse" gradientTransform="translate(661.132 388.52) scale(8.80972 8.80969)">
<stop stop-color="white"/>
<stop offset="0.1346" stop-color="#F7FFFD"/>
<stop offset="0.3057" stop-color="#E6FFFA"/>
<stop offset="0.5218" stop-color="#EFFFFC" stop-opacity="0.6888"/>
<stop offset="1" stop-color="white" stop-opacity="0"/>
</radialGradient>
<radialGradient id="paint35_radial_3860_69008" cx="0" cy="0" r="1" gradientUnits="userSpaceOnUse" gradientTransform="translate(46.1067 316.5) scale(12.1698 12.1698)">
<stop stop-color="#296D85"/>
<stop offset="0.114" stop-color="#237385" stop-opacity="0.8771"/>
<stop offset="0.609" stop-color="#0E8986" stop-opacity="0.3437"/>
<stop offset="0.9279" stop-color="#069186" stop-opacity="0"/>
</radialGradient>
<linearGradient id="paint36_linear_3860_69008" x1="35.4316" y1="316.5" x2="56.7565" y2="316.5" gradientUnits="userSpaceOnUse">
<stop stop-color="#296D85"/>
<stop offset="1" stop-color="#069186"/>
</linearGradient>
<radialGradient id="paint37_radial_3860_69008" cx="0" cy="0" r="1" gradientUnits="userSpaceOnUse" gradientTransform="translate(46.1067 316.5) scale(12.1698 12.1698)">
<stop stop-color="#296D85"/>
<stop offset="0.114" stop-color="#237385" stop-opacity="0.8771"/>
<stop offset="0.609" stop-color="#0E8986" stop-opacity="0.3437"/>
<stop offset="0.9279" stop-color="#069186" stop-opacity="0"/>
</radialGradient>
<linearGradient id="paint38_linear_3860_69008" x1="35.4316" y1="316.5" x2="56.7565" y2="316.5" gradientUnits="userSpaceOnUse">
<stop stop-color="#296D85"/>
<stop offset="1" stop-color="#069186"/>
</linearGradient>
<radialGradient id="paint39_radial_3860_69008" cx="0" cy="0" r="1" gradientUnits="userSpaceOnUse" gradientTransform="translate(46.1067 316.5) scale(12.1698 12.1698)">
<stop stop-color="#296D85"/>
<stop offset="0.114" stop-color="#237385" stop-opacity="0.8771"/>
<stop offset="0.609" stop-color="#0E8986" stop-opacity="0.3437"/>
<stop offset="0.9279" stop-color="#069186" stop-opacity="0"/>
</radialGradient>
<linearGradient id="paint40_linear_3860_69008" x1="35.4316" y1="316.5" x2="56.7565" y2="316.5" gradientUnits="userSpaceOnUse">
<stop stop-color="#296D85"/>
<stop offset="1" stop-color="#069186"/>
</linearGradient>
<radialGradient id="paint41_radial_3860_69008" cx="0" cy="0" r="1" gradientUnits="userSpaceOnUse" gradientTransform="translate(46.1067 316.5) scale(12.1698 12.1698)">
<stop stop-color="#296D85"/>
<stop offset="0.114" stop-color="#237385" stop-opacity="0.8771"/>
<stop offset="0.609" stop-color="#0E8986" stop-opacity="0.3437"/>
<stop offset="0.9279" stop-color="#069186" stop-opacity="0"/>
</radialGradient>
<linearGradient id="paint42_linear_3860_69008" x1="35.4316" y1="316.5" x2="56.7565" y2="316.5" gradientUnits="userSpaceOnUse">
<stop stop-color="#296D85"/>
<stop offset="1" stop-color="#069186"/>
</linearGradient>
<radialGradient id="paint43_radial_3860_69008" cx="0" cy="0" r="1" gradientUnits="userSpaceOnUse" gradientTransform="translate(983.585 232.98) scale(6.13501)">
<stop stop-color="#296D85"/>
<stop offset="0.114" stop-color="#237385" stop-opacity="0.8771"/>
<stop offset="0.609" stop-color="#0E8986" stop-opacity="0.3437"/>
<stop offset="0.9279" stop-color="#069186" stop-opacity="0"/>
</radialGradient>
<linearGradient id="paint44_linear_3860_69008" x1="978.956" y1="233" x2="988.213" y2="233" gradientUnits="userSpaceOnUse">
<stop stop-color="#296D85"/>
<stop offset="1" stop-color="#069186"/>
</linearGradient>
<radialGradient id="paint45_radial_3860_69008" cx="0" cy="0" r="1" gradientUnits="userSpaceOnUse" gradientTransform="translate(983.585 232.98) scale(6.13501)">
<stop stop-color="#296D85"/>
<stop offset="0.114" stop-color="#237385" stop-opacity="0.8771"/>
<stop offset="0.609" stop-color="#0E8986" stop-opacity="0.3437"/>
<stop offset="0.9279" stop-color="#069186" stop-opacity="0"/>
</radialGradient>
<linearGradient id="paint46_linear_3860_69008" x1="978.956" y1="233" x2="988.213" y2="233" gradientUnits="userSpaceOnUse">
<stop stop-color="#296D85"/>
<stop offset="1" stop-color="#069186"/>
</linearGradient>
<radialGradient id="paint47_radial_3860_69008" cx="0" cy="0" r="1" gradientUnits="userSpaceOnUse" gradientTransform="translate(983.585 232.98) scale(6.13501)">
<stop stop-color="#296D85"/>
<stop offset="0.114" stop-color="#237385" stop-opacity="0.8771"/>
<stop offset="0.609" stop-color="#0E8986" stop-opacity="0.3437"/>
<stop offset="0.9279" stop-color="#069186" stop-opacity="0"/>
</radialGradient>
<linearGradient id="paint48_linear_3860_69008" x1="978.956" y1="233" x2="988.213" y2="233" gradientUnits="userSpaceOnUse">
<stop stop-color="#296D85"/>
<stop offset="1" stop-color="#069186"/>
</linearGradient>
<radialGradient id="paint49_radial_3860_69008" cx="0" cy="0" r="1" gradientUnits="userSpaceOnUse" gradientTransform="translate(983.585 232.98) scale(6.13501)">
<stop stop-color="#296D85"/>
<stop offset="0.114" stop-color="#237385" stop-opacity="0.8771"/>
<stop offset="0.609" stop-color="#0E8986" stop-opacity="0.3437"/>
<stop offset="0.9279" stop-color="#069186" stop-opacity="0"/>
</radialGradient>
<linearGradient id="paint50_linear_3860_69008" x1="978.956" y1="233" x2="988.213" y2="233" gradientUnits="userSpaceOnUse">
<stop stop-color="#296D85"/>
<stop offset="1" stop-color="#069186"/>
</linearGradient>
<radialGradient id="paint51_radial_3860_69008" cx="0" cy="0" r="1" gradientUnits="userSpaceOnUse" gradientTransform="translate(590.87 222.42) scale(4.26809 4.2681)">
<stop stop-color="#296D85"/>
<stop offset="0.114" stop-color="#237385" stop-opacity="0.8771"/>
<stop offset="0.609" stop-color="#0E8986" stop-opacity="0.3437"/>
<stop offset="0.9279" stop-color="#069186" stop-opacity="0"/>
</radialGradient>
<linearGradient id="paint52_linear_3860_69008" x1="588.106" y1="222.4" x2="593.635" y2="222.4" gradientUnits="userSpaceOnUse">
<stop stop-color="#296D85"/>
<stop offset="1" stop-color="#069186"/>
</linearGradient>
<radialGradient id="paint53_radial_3860_69008" cx="0" cy="0" r="1" gradientUnits="userSpaceOnUse" gradientTransform="translate(590.87 222.42) scale(4.26809 4.2681)">
<stop stop-color="#296D85"/>
<stop offset="0.114" stop-color="#237385" stop-opacity="0.8771"/>
<stop offset="0.609" stop-color="#0E8986" stop-opacity="0.3437"/>
<stop offset="0.9279" stop-color="#069186" stop-opacity="0"/>
</radialGradient>
<linearGradient id="paint54_linear_3860_69008" x1="588.106" y1="222.4" x2="593.635" y2="222.4" gradientUnits="userSpaceOnUse">
<stop stop-color="#296D85"/>
<stop offset="1" stop-color="#069186"/>
</linearGradient>
<radialGradient id="paint55_radial_3860_69008" cx="0" cy="0" r="1" gradientUnits="userSpaceOnUse" gradientTransform="translate(590.87 222.42) scale(4.26809 4.2681)">
<stop stop-color="#296D85"/>
<stop offset="0.114" stop-color="#237385" stop-opacity="0.8771"/>
<stop offset="0.609" stop-color="#0E8986" stop-opacity="0.3437"/>
<stop offset="0.9279" stop-color="#069186" stop-opacity="0"/>
</radialGradient>
<linearGradient id="paint56_linear_3860_69008" x1="588.106" y1="222.4" x2="593.635" y2="222.4" gradientUnits="userSpaceOnUse">
<stop stop-color="#296D85"/>
<stop offset="1" stop-color="#069186"/>
</linearGradient>
<radialGradient id="paint57_radial_3860_69008" cx="0" cy="0" r="1" gradientUnits="userSpaceOnUse" gradientTransform="translate(590.87 222.42) scale(4.26809 4.2681)">
<stop stop-color="#296D85"/>
<stop offset="0.114" stop-color="#237385" stop-opacity="0.8771"/>
<stop offset="0.609" stop-color="#0E8986" stop-opacity="0.3437"/>
<stop offset="0.9279" stop-color="#069186" stop-opacity="0"/>
</radialGradient>
<linearGradient id="paint58_linear_3860_69008" x1="588.106" y1="222.4" x2="593.635" y2="222.4" gradientUnits="userSpaceOnUse">
<stop stop-color="#296D85"/>
<stop offset="1" stop-color="#069186"/>
</linearGradient>
<radialGradient id="paint59_radial_3860_69008" cx="0" cy="0" r="1" gradientUnits="userSpaceOnUse" gradientTransform="translate(197.359 465.7) scale(4.2696)">
<stop stop-color="#296D85"/>
<stop offset="0.114" stop-color="#237385" stop-opacity="0.8771"/>
<stop offset="0.609" stop-color="#0E8986" stop-opacity="0.3437"/>
<stop offset="0.9279" stop-color="#069186" stop-opacity="0"/>
</radialGradient>
<linearGradient id="paint60_linear_3860_69008" x1="194.595" y1="465.7" x2="200.123" y2="465.7" gradientUnits="userSpaceOnUse">
<stop stop-color="#296D85"/>
<stop offset="1" stop-color="#069186"/>
</linearGradient>
<radialGradient id="paint61_radial_3860_69008" cx="0" cy="0" r="1" gradientUnits="userSpaceOnUse" gradientTransform="translate(197.359 465.7) scale(4.2696)">
<stop stop-color="#296D85"/>
<stop offset="0.114" stop-color="#237385" stop-opacity="0.8771"/>
<stop offset="0.609" stop-color="#0E8986" stop-opacity="0.3437"/>
<stop offset="0.9279" stop-color="#069186" stop-opacity="0"/>
</radialGradient>
<linearGradient id="paint62_linear_3860_69008" x1="194.595" y1="465.7" x2="200.123" y2="465.7" gradientUnits="userSpaceOnUse">
<stop stop-color="#296D85"/>
<stop offset="1" stop-color="#069186"/>
</linearGradient>
<radialGradient id="paint63_radial_3860_69008" cx="0" cy="0" r="1" gradientUnits="userSpaceOnUse" gradientTransform="translate(197.359 465.7) scale(4.2696)">
<stop stop-color="#296D85"/>
<stop offset="0.114" stop-color="#237385" stop-opacity="0.8771"/>
<stop offset="0.609" stop-color="#0E8986" stop-opacity="0.3437"/>
<stop offset="0.9279" stop-color="#069186" stop-opacity="0"/>
</radialGradient>
<linearGradient id="paint64_linear_3860_69008" x1="194.595" y1="465.7" x2="200.123" y2="465.7" gradientUnits="userSpaceOnUse">
<stop stop-color="#296D85"/>
<stop offset="1" stop-color="#069186"/>
</linearGradient>
<radialGradient id="paint65_radial_3860_69008" cx="0" cy="0" r="1" gradientUnits="userSpaceOnUse" gradientTransform="translate(197.359 465.7) scale(4.2696)">
<stop stop-color="#296D85"/>
<stop offset="0.114" stop-color="#237385" stop-opacity="0.8771"/>
<stop offset="0.609" stop-color="#0E8986" stop-opacity="0.3437"/>
<stop offset="0.9279" stop-color="#069186" stop-opacity="0"/>
</radialGradient>
<linearGradient id="paint66_linear_3860_69008" x1="194.595" y1="465.7" x2="200.123" y2="465.7" gradientUnits="userSpaceOnUse">
<stop stop-color="#296D85"/>
<stop offset="1" stop-color="#069186"/>
</linearGradient>
<radialGradient id="paint67_radial_3860_69008" cx="0" cy="0" r="1" gradientUnits="userSpaceOnUse" gradientTransform="translate(750.132 176.9) scale(115.3 115.3)">
<stop offset="0.8242" stop-color="#1F75B6"/>
<stop offset="0.9841" stop-color="#1F75B6" stop-opacity="0"/>
</radialGradient>
<linearGradient id="paint68_linear_3860_69008" x1="590.278" y1="-10.6699" x2="1024.44" y2="494.022" gradientUnits="userSpaceOnUse">
<stop stop-color="#2671C1"/>
<stop offset="1" stop-color="#098D86"/>
</linearGradient>
<radialGradient id="paint69_radial_3860_69008" cx="0" cy="0" r="1" gradientUnits="userSpaceOnUse" gradientTransform="translate(728.794 41.7292) rotate(129.746) scale(332.671 332.671)">
<stop offset="0.136" stop-color="#2671C1" stop-opacity="0"/>
<stop offset="0.1987" stop-color="#256DBA" stop-opacity="0.1285"/>
<stop offset="0.2912" stop-color="#2261A6" stop-opacity="0.3183"/>
<stop offset="0.4022" stop-color="#1C4D85" stop-opacity="0.5459"/>
<stop offset="0.5264" stop-color="#153158" stop-opacity="0.8008"/>
<stop offset="0.6236" stop-color="#0E1930"/>
</radialGradient>
<radialGradient id="paint70_radial_3860_69008" cx="0" cy="0" r="1" gradientUnits="userSpaceOnUse" gradientTransform="translate(1159.67 327.2) scale(4.26389 4.2639)">
<stop stop-color="#296D85"/>
<stop offset="0.114" stop-color="#237385" stop-opacity="0.8771"/>
<stop offset="0.609" stop-color="#0E8986" stop-opacity="0.3437"/>
<stop offset="0.9279" stop-color="#069186" stop-opacity="0"/>
</radialGradient>
<linearGradient id="paint71_linear_3860_69008" x1="1156.9" y1="327.2" x2="1162.43" y2="327.2" gradientUnits="userSpaceOnUse">
<stop stop-color="#296D85"/>
<stop offset="1" stop-color="#069186"/>
</linearGradient>
<radialGradient id="paint72_radial_3860_69008" cx="0" cy="0" r="1" gradientUnits="userSpaceOnUse" gradientTransform="translate(1159.67 327.2) scale(4.26389 4.2639)">
<stop stop-color="#296D85"/>
<stop offset="0.114" stop-color="#237385" stop-opacity="0.8771"/>
<stop offset="0.609" stop-color="#0E8986" stop-opacity="0.3437"/>
<stop offset="0.9279" stop-color="#069186" stop-opacity="0"/>
</radialGradient>
<linearGradient id="paint73_linear_3860_69008" x1="1156.9" y1="327.2" x2="1162.43" y2="327.2" gradientUnits="userSpaceOnUse">
<stop stop-color="#296D85"/>
<stop offset="1" stop-color="#069186"/>
</linearGradient>
<radialGradient id="paint74_radial_3860_69008" cx="0" cy="0" r="1" gradientUnits="userSpaceOnUse" gradientTransform="translate(1159.67 327.2) scale(4.26389 4.2639)">
<stop stop-color="#296D85"/>
<stop offset="0.114" stop-color="#237385" stop-opacity="0.8771"/>
<stop offset="0.609" stop-color="#0E8986" stop-opacity="0.3437"/>
<stop offset="0.9279" stop-color="#069186" stop-opacity="0"/>
</radialGradient>
<linearGradient id="paint75_linear_3860_69008" x1="1156.9" y1="327.2" x2="1162.43" y2="327.2" gradientUnits="userSpaceOnUse">
<stop stop-color="#296D85"/>
<stop offset="1" stop-color="#069186"/>
</linearGradient>
<radialGradient id="paint76_radial_3860_69008" cx="0" cy="0" r="1" gradientUnits="userSpaceOnUse" gradientTransform="translate(1159.67 327.2) scale(4.26389 4.2639)">
<stop stop-color="#296D85"/>
<stop offset="0.114" stop-color="#237385" stop-opacity="0.8771"/>
<stop offset="0.609" stop-color="#0E8986" stop-opacity="0.3437"/>
<stop offset="0.9279" stop-color="#069186" stop-opacity="0"/>
</radialGradient>
<linearGradient id="paint77_linear_3860_69008" x1="1156.9" y1="327.2" x2="1162.43" y2="327.2" gradientUnits="userSpaceOnUse">
<stop stop-color="#296D85"/>
<stop offset="1" stop-color="#069186"/>
</linearGradient>
<radialGradient id="paint78_radial_3860_69008" cx="0" cy="0" r="1" gradientUnits="userSpaceOnUse" gradientTransform="translate(746.432 564.283) scale(6.13771)">
<stop stop-color="#296D85"/>
<stop offset="0.114" stop-color="#237385" stop-opacity="0.8771"/>
<stop offset="0.609" stop-color="#0E8986" stop-opacity="0.3437"/>
<stop offset="0.9279" stop-color="#069186" stop-opacity="0"/>
</radialGradient>
<linearGradient id="paint79_linear_3860_69008" x1="741.809" y1="564.3" x2="751.066" y2="564.3" gradientUnits="userSpaceOnUse">
<stop stop-color="#296D85"/>
<stop offset="1" stop-color="#069186"/>
</linearGradient>
<radialGradient id="paint80_radial_3860_69008" cx="0" cy="0" r="1" gradientUnits="userSpaceOnUse" gradientTransform="translate(746.432 564.283) scale(6.13771)">
<stop stop-color="#296D85"/>
<stop offset="0.114" stop-color="#237385" stop-opacity="0.8771"/>
<stop offset="0.609" stop-color="#0E8986" stop-opacity="0.3437"/>
<stop offset="0.9279" stop-color="#069186" stop-opacity="0"/>
</radialGradient>
<linearGradient id="paint81_linear_3860_69008" x1="741.809" y1="564.3" x2="751.066" y2="564.3" gradientUnits="userSpaceOnUse">
<stop stop-color="#296D85"/>
<stop offset="1" stop-color="#069186"/>
</linearGradient>
<radialGradient id="paint82_radial_3860_69008" cx="0" cy="0" r="1" gradientUnits="userSpaceOnUse" gradientTransform="translate(746.432 564.283) scale(6.13771)">
<stop stop-color="#296D85"/>
<stop offset="0.114" stop-color="#237385" stop-opacity="0.8771"/>
<stop offset="0.609" stop-color="#0E8986" stop-opacity="0.3437"/>
<stop offset="0.9279" stop-color="#069186" stop-opacity="0"/>
</radialGradient>
<linearGradient id="paint83_linear_3860_69008" x1="741.809" y1="564.3" x2="751.066" y2="564.3" gradientUnits="userSpaceOnUse">
<stop stop-color="#296D85"/>
<stop offset="1" stop-color="#069186"/>
</linearGradient>
<radialGradient id="paint84_radial_3860_69008" cx="0" cy="0" r="1" gradientUnits="userSpaceOnUse" gradientTransform="translate(746.432 564.283) scale(6.13771)">
<stop stop-color="#296D85"/>
<stop offset="0.114" stop-color="#237385" stop-opacity="0.8771"/>
<stop offset="0.609" stop-color="#0E8986" stop-opacity="0.3437"/>
<stop offset="0.9279" stop-color="#069186" stop-opacity="0"/>
</radialGradient>
<linearGradient id="paint85_linear_3860_69008" x1="741.809" y1="564.3" x2="751.066" y2="564.3" gradientUnits="userSpaceOnUse">
<stop stop-color="#296D85"/>
<stop offset="1" stop-color="#069186"/>
</linearGradient>
<clipPath id="clip0_3860_69008">
<rect width="1234.1" height="650" fill="white" transform="translate(0.03125)"/>
</clipPath>
</defs>
</svg>
