<svg width="384" height="384" viewBox="0 0 384 384" fill="none" xmlns="http://www.w3.org/2000/svg">
<g clip-path="url(#clip0_273_43)">
<circle cx="192" cy="192" r="192" fill="white"/>
<path d="M212.829 64.0001C208.395 63.9902 203.924 64.5586 199.527 65.7334L122.156 86.4091L129.695 114.469L207.065 93.7934C214.604 91.7794 222.647 93.928 228.165 99.4311L284.805 155.92C290.323 161.424 292.478 169.446 290.459 176.964L270.836 250L312.029 208.918L318.594 184.482C323.306 166.939 318.277 148.222 305.401 135.379L248.762 78.8906C239.104 69.2596 226.132 64.03 212.829 64.0001Z" fill="url(#paint0_linear_273_43)"/>
<path d="M171.503 320C175.937 320.01 180.408 319.442 184.805 318.267L262.176 297.591L254.637 269.531L177.267 290.207C169.728 292.221 161.685 290.072 156.167 284.569L99.5273 228.08C94.0092 222.576 91.8541 214.554 93.8735 207.036L113.496 134L72.3032 175.082L65.7382 199.518C61.026 217.061 66.0547 235.778 78.9307 248.621L135.57 305.11C145.228 314.741 158.2 319.97 171.503 320Z" fill="url(#paint1_linear_273_43)"/>
<path d="M238.245 261.287C224.001 265.093 215.549 279.694 219.365 293.9C223.182 308.105 237.822 316.535 252.065 312.729C266.309 308.922 274.762 294.321 270.945 280.116C267.129 265.91 252.488 257.48 238.245 261.287Z" fill="#38ECBF"/>
<path d="M145.732 122.713C159.975 118.907 168.428 104.305 164.611 90.1C160.795 75.8947 146.154 67.4646 131.911 71.2709C117.668 75.0772 109.215 89.6785 113.031 103.884C116.848 118.089 131.488 126.519 145.732 122.713Z" fill="#38ECBF"/>
</g>
<defs>
<linearGradient id="paint0_linear_273_43" x1="326.25" y1="233.334" x2="151.014" y2="57.6284" gradientUnits="userSpaceOnUse">
<stop stop-color="#000C80" stop-opacity="0.7"/>
<stop offset="0.866085" stop-color="#38ECBF"/>
</linearGradient>
<linearGradient id="paint1_linear_273_43" x1="58.0823" y1="150.666" x2="233.318" y2="326.372" gradientUnits="userSpaceOnUse">
<stop stop-color="#000C80" stop-opacity="0.7"/>
<stop offset="0.866085" stop-color="#38ECBF"/>
</linearGradient>
<clipPath id="clip0_273_43">
<rect width="384" height="384" fill="white"/>
</clipPath>
</defs>
</svg>
