<svg width="198" height="63" viewBox="0 0 198 63" fill="none" xmlns="http://www.w3.org/2000/svg">
  <path d="M61.8255 43.9482C61.5711 43.9482 61.3549 43.8592 61.1769 43.6812C60.9988 43.5031 60.9098 43.2869 60.9098 43.0326V18.1959C60.9098 17.9161 60.9988 17.6872 61.1769 17.5091C61.3549 17.3311 61.5711 17.2421 61.8255 17.2421H71.1345C73.7033 17.2421 75.8144 17.6363 77.4676 18.4248C79.1463 19.2132 80.4053 20.3832 81.2446 21.9347C82.1094 23.4862 82.5545 25.3811 82.58 27.6193C82.6308 28.7384 82.6563 29.7304 82.6563 30.5952C82.6563 31.4599 82.6308 32.4391 82.58 33.5328C82.5291 35.8982 82.0967 37.8567 81.2828 39.4082C80.4689 40.9342 79.2353 42.0788 77.5821 42.8418C75.9543 43.5794 73.8687 43.9482 71.3252 43.9482H61.8255ZM66.2129 39.5608H71.1345C72.5588 39.5608 73.7161 39.3573 74.6063 38.9504C75.4965 38.5434 76.145 37.8948 76.552 37.0046C76.9844 36.089 77.2133 34.8936 77.2387 33.4184C77.2642 32.6553 77.2769 31.994 77.2769 31.4345C77.3023 30.8495 77.3023 30.2772 77.2769 29.7177C77.2769 29.1327 77.2642 28.4714 77.2387 27.7338C77.1879 25.6482 76.6664 24.1094 75.6745 23.1174C74.6826 22.1255 73.1056 21.6295 70.9437 21.6295H66.2129V39.5608ZM93.8776 44.3297C92.3261 44.3297 90.9781 43.9864 89.8335 43.2996C88.7144 42.5875 87.8497 41.5955 87.2392 40.3238C86.6288 39.0267 86.3236 37.5006 86.3236 35.7456V25.025C86.3236 24.7707 86.4126 24.5545 86.5906 24.3764C86.7687 24.1984 86.9849 24.1094 87.2392 24.1094H90.5966C90.8763 24.1094 91.0925 24.1984 91.2451 24.3764C91.4232 24.5545 91.5122 24.7707 91.5122 25.025V35.5167C91.5122 38.6706 92.8984 40.2475 95.6707 40.2475C96.9933 40.2475 98.0361 39.8278 98.7992 38.9885C99.5876 38.1492 99.9819 36.9919 99.9819 35.5167V25.025C99.9819 24.7707 100.071 24.5545 100.249 24.3764C100.427 24.1984 100.643 24.1094 100.898 24.1094H104.255C104.509 24.1094 104.725 24.1984 104.903 24.3764C105.081 24.5545 105.17 24.7707 105.17 25.025V43.0326C105.17 43.2869 105.081 43.5031 104.903 43.6812C104.725 43.8592 104.509 43.9482 104.255 43.9482H101.165C100.885 43.9482 100.656 43.8592 100.478 43.6812C100.325 43.5031 100.249 43.2869 100.249 43.0326V41.4684C99.5622 42.3586 98.7102 43.058 97.6928 43.5667C96.6754 44.0754 95.4037 44.3297 93.8776 44.3297ZM115.208 44.3297C113.885 44.3297 112.69 44.0754 111.622 43.5667C110.553 43.0326 109.701 42.3331 109.066 41.4684C108.455 40.5782 108.15 39.5862 108.15 38.4925C108.15 36.7121 108.862 35.3005 110.286 34.2577C111.736 33.1895 113.644 32.4773 116.009 32.1212L121.236 31.3582V30.557C121.236 29.4888 120.969 28.6621 120.435 28.0771C119.901 27.4922 118.985 27.1997 117.688 27.1997C116.772 27.1997 116.022 27.3904 115.437 27.7719C114.877 28.128 114.458 28.6113 114.178 29.2217C113.974 29.5523 113.682 29.7177 113.3 29.7177H110.286C110.007 29.7177 109.79 29.6414 109.638 29.4888C109.511 29.3361 109.447 29.1327 109.447 28.8783C109.472 28.4714 109.638 27.9754 109.943 27.3904C110.248 26.8054 110.731 26.2459 111.393 25.7117C112.054 25.1522 112.906 24.6816 113.949 24.3001C114.992 23.9186 116.251 23.7279 117.726 23.7279C119.328 23.7279 120.676 23.9313 121.77 24.3383C122.889 24.7198 123.779 25.2412 124.441 25.9025C125.102 26.5638 125.585 27.3395 125.89 28.2297C126.196 29.12 126.348 30.061 126.348 31.053V43.0326C126.348 43.2869 126.259 43.5031 126.081 43.6812C125.903 43.8592 125.687 43.9482 125.433 43.9482H122.342C122.063 43.9482 121.834 43.8592 121.656 43.6812C121.503 43.5031 121.427 43.2869 121.427 43.0326V41.5447C121.096 42.0279 120.651 42.4857 120.091 42.9181C119.532 43.3251 118.845 43.6684 118.031 43.9482C117.243 44.2026 116.302 44.3297 115.208 44.3297ZM116.505 40.7053C117.395 40.7053 118.197 40.5146 118.909 40.1331C119.646 39.7515 120.219 39.1666 120.625 38.3781C121.058 37.5642 121.274 36.5468 121.274 35.326V34.5248L117.459 35.1352C115.958 35.3641 114.839 35.7329 114.102 36.2416C113.364 36.7503 112.995 37.3734 112.995 38.111C112.995 38.6706 113.16 39.1538 113.491 39.5608C113.847 39.9423 114.292 40.2348 114.826 40.4383C115.361 40.6163 115.92 40.7053 116.505 40.7053ZM131.433 43.9482C131.179 43.9482 130.963 43.8592 130.785 43.6812C130.607 43.5031 130.518 43.2869 130.518 43.0326V17.7762C130.518 17.5219 130.607 17.3057 130.785 17.1276C130.963 16.9496 131.179 16.8606 131.433 16.8606H134.6C134.854 16.8606 135.071 16.9496 135.249 17.1276C135.427 17.3057 135.516 17.5219 135.516 17.7762V43.0326C135.516 43.2869 135.427 43.5031 135.249 43.6812C135.071 43.8592 134.854 43.9482 134.6 43.9482H131.433ZM141.549 43.9482C141.294 43.9482 141.078 43.8592 140.9 43.6812C140.722 43.5031 140.633 43.2869 140.633 43.0326V25.025C140.633 24.7707 140.722 24.5545 140.9 24.3764C141.078 24.1984 141.294 24.1094 141.549 24.1094H144.715C144.995 24.1094 145.211 24.1984 145.364 24.3764C145.542 24.5545 145.631 24.7707 145.631 25.025V43.0326C145.631 43.2869 145.542 43.5031 145.364 43.6812C145.211 43.8592 144.995 43.9482 144.715 43.9482H141.549ZM141.396 20.8283C141.116 20.8283 140.887 20.752 140.709 20.5994C140.557 20.4214 140.48 20.1925 140.48 19.9127V17.1658C140.48 16.9114 140.557 16.6952 140.709 16.5172C140.887 16.3392 141.116 16.2501 141.396 16.2501H144.868C145.148 16.2501 145.377 16.3392 145.555 16.5172C145.733 16.6952 145.822 16.9114 145.822 17.1658V19.9127C145.822 20.1925 145.733 20.4214 145.555 20.5994C145.377 20.752 145.148 20.8283 144.868 20.8283H141.396ZM158.895 43.9482C157.369 43.9482 156.085 43.6812 155.042 43.147C153.999 42.6129 153.223 41.8245 152.715 40.7816C152.206 39.7134 151.952 38.3908 151.952 36.8139V28.1534H148.938C148.683 28.1534 148.467 28.0644 148.289 27.8864C148.111 27.7083 148.022 27.4921 148.022 27.2378V25.025C148.022 24.7707 148.111 24.5545 148.289 24.3764C148.467 24.1984 148.683 24.1094 148.938 24.1094H151.952V17.7762C151.952 17.5219 152.028 17.3057 152.18 17.1276C152.359 16.9496 152.587 16.8606 152.867 16.8606H155.957C156.212 16.8606 156.428 16.9496 156.606 17.1276C156.784 17.3057 156.873 17.5219 156.873 17.7762V24.1094H161.642C161.896 24.1094 162.113 24.1984 162.291 24.3764C162.469 24.5545 162.558 24.7707 162.558 25.025V27.2378C162.558 27.4921 162.469 27.7083 162.291 27.8864C162.113 28.0644 161.896 28.1534 161.642 28.1534H156.873V36.4324C156.873 37.4752 157.051 38.2891 157.407 38.8741C157.789 39.459 158.437 39.7515 159.353 39.7515H161.985C162.24 39.7515 162.456 39.8406 162.634 40.0186C162.812 40.1966 162.901 40.4128 162.901 40.6672V43.0326C162.901 43.2869 162.812 43.5031 162.634 43.6812C162.456 43.8592 162.24 43.9482 161.985 43.9482H158.895ZM169.109 51.197C168.905 51.197 168.727 51.1207 168.575 50.9681C168.422 50.8155 168.346 50.6375 168.346 50.434C168.346 50.3323 168.346 50.2305 168.346 50.1288C168.371 50.0525 168.422 49.9508 168.498 49.8236L171.474 42.7655L164.149 25.4828C164.047 25.2285 163.996 25.0504 163.996 24.9487C164.022 24.7198 164.111 24.529 164.264 24.3764C164.416 24.1984 164.607 24.1094 164.836 24.1094H167.926C168.231 24.1094 168.46 24.1857 168.613 24.3383C168.765 24.4909 168.88 24.6562 168.956 24.8343L174.03 37.3098L179.257 24.8343C179.333 24.6308 179.448 24.4655 179.6 24.3383C179.753 24.1857 179.982 24.1094 180.287 24.1094H183.339C183.543 24.1094 183.721 24.1857 183.873 24.3383C184.052 24.4909 184.141 24.6689 184.141 24.8724C184.141 25.025 184.09 25.2285 183.988 25.4828L173.191 50.4722C173.089 50.6756 172.962 50.841 172.809 50.9681C172.657 51.1207 172.428 51.197 172.123 51.197H169.109Z" fill="white"/>
  <path d="M34.7837 8.43345C34.0004 8.43168 33.2108 8.53235 32.4341 8.74042L18.7683 12.4021L20.0998 17.3716L33.7656 13.7099C35.0971 13.3532 36.5177 13.7337 37.4925 14.7083L47.4966 24.7126C48.4712 25.6874 48.8519 27.1081 48.4952 28.4396L45.0292 41.3744L52.3051 34.0987L53.4647 29.771C54.297 26.6641 53.4088 23.3493 51.1345 21.0748L41.1304 11.0706C39.4245 9.36491 37.1334 8.43874 34.7837 8.43345Z" fill="white"/>
  <path d="M27.4843 53.7715C28.2675 53.7733 29.0571 53.6726 29.8339 53.4646L43.4997 49.8028L42.1681 44.8334L28.5023 48.4951C27.1708 48.8518 25.7502 48.4712 24.7755 47.4966L14.7714 37.4924C13.7967 36.5176 13.4161 35.0968 13.7728 33.7654L17.2387 20.8306L9.96285 28.1062L8.80329 32.434C7.97097 35.5409 8.85919 38.8556 11.1335 41.1301L21.1375 51.1344C22.8434 52.8401 25.1346 53.7662 27.4843 53.7715Z" fill="white"/>
  <path d="M39.2728 43.3733C36.757 44.0474 35.2641 46.6333 35.9382 49.1491C36.6123 51.6649 39.1982 53.1579 41.714 52.4838C44.2297 51.8097 45.7227 49.2237 45.0486 46.708C44.3745 44.1922 41.7886 42.6992 39.2728 43.3733Z" fill="white"/>
  <path d="M22.9324 18.8316C25.4482 18.1575 26.9412 15.5716 26.2671 13.0558C25.593 10.54 23.0071 9.04702 20.4913 9.72113C17.9755 10.3952 16.4825 12.9811 17.1566 15.4969C17.8307 18.0127 20.4166 19.5057 22.9324 18.8316Z" fill="white"/>
</svg>
