<svg width="63" height="63" viewBox="0 0 63 63" fill="none" xmlns="http://www.w3.org/2000/svg">
  <path d="M34.7837 8.43345C34.0004 8.43168 33.2108 8.53235 32.4341 8.74042L18.7683 12.4021L20.0998 17.3716L33.7656 13.7099C35.0971 13.3532 36.5177 13.7337 37.4925 14.7083L47.4966 24.7126C48.4712 25.6874 48.8519 27.1081 48.4952 28.4396L45.0292 41.3744L52.3051 34.0987L53.4647 29.771C54.297 26.6641 53.4088 23.3493 51.1345 21.0748L41.1304 11.0706C39.4245 9.36491 37.1334 8.43874 34.7837 8.43345Z" fill="white"/>
  <path d="M27.4843 53.7715C28.2675 53.7733 29.0571 53.6726 29.8339 53.4646L43.4997 49.8028L42.1681 44.8334L28.5023 48.4951C27.1708 48.8518 25.7502 48.4712 24.7755 47.4966L14.7714 37.4924C13.7967 36.5176 13.4161 35.0968 13.7728 33.7654L17.2387 20.8306L9.96285 28.1062L8.80329 32.434C7.97097 35.5409 8.85919 38.8556 11.1335 41.1301L21.1375 51.1344C22.8434 52.8401 25.1346 53.7662 27.4843 53.7715Z" fill="white"/>
  <path d="M39.2728 43.3733C36.757 44.0474 35.2641 46.6333 35.9382 49.1491C36.6123 51.6649 39.1982 53.1579 41.714 52.4838C44.2297 51.8097 45.7227 49.2237 45.0486 46.708C44.3745 44.1922 41.7886 42.6992 39.2728 43.3733Z" fill="white"/>
  <path d="M22.9324 18.8316C25.4482 18.1575 26.9412 15.5716 26.2671 13.0558C25.593 10.54 23.0071 9.04702 20.4913 9.72113C17.9755 10.3952 16.4825 12.9811 17.1566 15.4969C17.8307 18.0127 20.4166 19.5057 22.9324 18.8316Z" fill="white"/>
</svg>
