<svg width="57" height="47" viewBox="0 0 57 47" fill="none" xmlns="http://www.w3.org/2000/svg">
<line x1="0.385246" y1="-0.385246" x2="46.6148" y2="-0.385246" transform="matrix(4.37112e-08 1 1 -4.37112e-08 51.5693 0)" stroke="#F9FAFB" stroke-width="0.770492" stroke-linecap="round"/>
<rect width="4.62295" height="4.62295" rx="0.770492" transform="matrix(-1 0 0 1 56.1924 3.08203)" fill="#38ECBF"/>
<rect width="4" height="8" rx="0.770492" transform="matrix(-1 0 0 1 50.0283 39)" fill="#4296C5"/>
<rect width="4" height="10" rx="0.770492" transform="matrix(-1 0 0 1 44.4873 37)" fill="#4296C5"/>
<rect width="4" height="12" rx="0.770492" transform="matrix(-1 0 0 1 38.9463 35)" fill="#4296C5"/>
<rect width="4" height="14" rx="0.770492" transform="matrix(-1 0 0 1 33.4053 33)" fill="#4296C5"/>
<rect width="4" height="16" rx="0.770492" transform="matrix(-1 0 0 1 27.8647 31)" fill="#4296C5"/>
<rect width="4" height="18" rx="0.770492" transform="matrix(-1 0 0 1 22.3237 29)" fill="#4296C5"/>
<rect width="4" height="20" rx="0.770492" transform="matrix(-1 0 0 1 16.7827 27)" fill="#4296C5"/>
<rect width="4" height="22" rx="0.770492" transform="matrix(-1 0 0 1 11.2417 25)" fill="#4296C5"/>
<line x1="0.385246" y1="-0.385246" x2="46.6148" y2="-0.385246" transform="matrix(4.37112e-08 1 1 -4.37112e-08 5.70068 0)" stroke="#F9FAFB" stroke-width="0.770492" stroke-linecap="round"/>
<rect width="4.62295" height="4.62295" rx="0.770492" transform="matrix(-1 0 0 1 4.93018 3.08203)" fill="#38ECBF"/>
</svg>
