<svg width="62" height="47" viewBox="0 0 62 47" fill="none" xmlns="http://www.w3.org/2000/svg">
<line x1="5.32372" y1="0.385246" x2="5.32372" y2="46.6148" stroke="#F9FAFB" stroke-width="0.770492" stroke-linecap="round"/>
<rect x="0.31543" y="3.08203" width="4.62295" height="4.62295" rx="0.770492" fill="#38ECBF"/>
<rect x="6.47949" y="35.4424" width="4.62295" height="11.5574" rx="0.770492" fill="#4296C5"/>
<rect x="12.6436" y="35.4424" width="4.62295" height="11.5574" rx="0.770492" fill="#4296C5"/>
<rect x="18.8071" y="35.4424" width="4.62295" height="11.5574" rx="0.770492" fill="#4296C5"/>
<rect x="24.9712" y="35.4424" width="4.62295" height="11.5574" rx="0.770492" fill="#4296C5"/>
<rect x="31.1353" y="35.4424" width="4.62295" height="11.5574" rx="0.770492" fill="#4296C5"/>
<rect x="37.2988" y="35.4424" width="4.62295" height="11.5574" rx="0.770492" fill="#4296C5"/>
<rect x="43.4629" y="35.4424" width="4.62295" height="11.5574" rx="0.770492" fill="#4296C5"/>
<rect x="49.627" y="35.4424" width="4.62295" height="11.5574" rx="0.770492" fill="#4296C5"/>
<line x1="56.1763" y1="0.385246" x2="56.1763" y2="46.6148" stroke="#F9FAFB" stroke-width="0.770492" stroke-linecap="round"/>
<rect x="56.5615" y="3.08203" width="4.62295" height="4.62295" rx="0.770492" fill="#38ECBF"/>
</svg>
