<svg width="57" height="47" viewBox="0 0 57 47" fill="none" xmlns="http://www.w3.org/2000/svg">
<line x1="5.81591" y1="0.385246" x2="5.81591" y2="46.6148" stroke="#F9FAFB" stroke-width="0.770492" stroke-linecap="round"/>
<rect x="0.807617" y="3.08203" width="4.62295" height="4.62295" rx="0.770492" fill="#38ECBF"/>
<rect x="6.97168" y="39" width="4" height="8" rx="0.770492" fill="#4296C5"/>
<rect x="12.5127" y="37" width="4" height="10" rx="0.770492" fill="#4296C5"/>
<rect x="18.0537" y="35" width="4" height="12" rx="0.770492" fill="#4296C5"/>
<rect x="23.5947" y="33" width="4" height="14" rx="0.770492" fill="#4296C5"/>
<rect x="29.1353" y="31" width="4" height="16" rx="0.770492" fill="#4296C5"/>
<rect x="34.6763" y="29" width="4" height="18" rx="0.770492" fill="#4296C5"/>
<rect x="40.2173" y="27" width="4" height="20" rx="0.770492" fill="#4296C5"/>
<rect x="45.7583" y="25" width="4" height="22" rx="0.770492" fill="#4296C5"/>
<line x1="51.6846" y1="0.385246" x2="51.6846" y2="46.6148" stroke="#F9FAFB" stroke-width="0.770492" stroke-linecap="round"/>
<rect x="52.0698" y="3.08203" width="4.62295" height="4.62295" rx="0.770492" fill="#38ECBF"/>
</svg>
