<svg width="62" height="47" viewBox="0 0 62 47" fill="none" xmlns="http://www.w3.org/2000/svg">
<line x1="5.96825" y1="0.385246" x2="5.96825" y2="46.6148" stroke="#F9FAFB" stroke-width="0.770492" stroke-linecap="round"/>
<rect x="0.959961" y="3.08203" width="4.62295" height="4.62295" rx="0.770492" fill="#38ECBF"/>
<rect x="7.12402" y="42.377" width="4.62295" height="4.62295" rx="0.770492" fill="#4296C5"/>
<rect x="13.2881" y="35.4424" width="4.62295" height="11.5574" rx="0.770492" fill="#4296C5"/>
<rect x="19.4517" y="28.5078" width="4.62295" height="18.4918" rx="0.770492" fill="#4296C5"/>
<rect x="25.6157" y="23.1152" width="4.62295" height="23.8852" rx="0.770492" fill="#4296C5"/>
<rect x="31.7798" y="23.1152" width="4.62295" height="23.8852" rx="0.770492" fill="#4296C5"/>
<rect x="37.9438" y="28.5078" width="4.62295" height="18.4918" rx="0.770492" fill="#4296C5"/>
<rect x="44.1074" y="35.4424" width="4.33402" height="11.5574" rx="0.770492" fill="#4296C5"/>
<rect x="49.9824" y="42.377" width="4.62295" height="4.62295" rx="0.770492" fill="#4296C5"/>
<line x1="56.5317" y1="0.385246" x2="56.5317" y2="46.6148" stroke="#F9FAFB" stroke-width="0.770492" stroke-linecap="round"/>
<rect x="56.917" y="3.08203" width="4.62295" height="4.62295" rx="0.770492" fill="#38ECBF"/>
</svg>
